M48
; DRILL file {KiCad (5.1.6-0)} date Thursday, February 03, 2022 at 06:07:16 PM
; FORMAT={-:-/ absolute / metric / decimal}
; #@! TF.CreationDate,2022-02-03T18:07:16-05:00
; #@! TF.GenerationSoftware,Kicad,Pcbnew,(5.1.6-0)
; #@! TF.FileFunction,Plated,1,2,PTH
FMAT,2
METRIC
T1C1.000
T2C1.170
T3C1.300
T4C1.350
T5C2.200
%
G90
G05
T1
X121.19Y-77.65
X121.19Y-100.15
T2
X100.076Y-88.9
T3
X156.982Y-76.454
X156.982Y-86.614
X167.142Y-76.454
X167.142Y-86.614
X156.982Y-91.44
X156.982Y-101.6
X167.142Y-91.44
X167.142Y-101.6
T4
X97.536Y-85.2
X97.536Y-92.6
X102.616Y-85.2
X102.616Y-92.6
T5
X100.584Y-99.314
X100.584Y-78.74
X150.876Y-91.186
X160.782Y-81.534
X160.782Y-96.52
T0
M30
