G04 #@! TF.GenerationSoftware,KiCad,Pcbnew,(5.1.6-0)*
G04 #@! TF.CreationDate,2022-02-03T18:07:08-05:00*
G04 #@! TF.ProjectId,HPF_test_01,4850465f-7465-4737-945f-30312e6b6963,rev?*
G04 #@! TF.SameCoordinates,Original*
G04 #@! TF.FileFunction,Legend,Top*
G04 #@! TF.FilePolarity,Positive*
%FSLAX46Y46*%
G04 Gerber Fmt 4.6, Leading zero omitted, Abs format (unit mm)*
G04 Created by KiCad (PCBNEW (5.1.6-0)) date 2022-02-03 18:07:08*
%MOMM*%
%LPD*%
G01*
G04 APERTURE LIST*
%ADD10C,0.100000*%
%ADD11C,0.120000*%
%ADD12C,0.200000*%
%ADD13C,0.150000*%
%ADD14R,1.720000X3.475000*%
%ADD15R,1.300000X3.475000*%
%ADD16C,1.624000*%
%ADD17C,4.500000*%
%ADD18C,2.400000*%
%ADD19C,3.300000*%
%ADD20R,5.100000X1.400000*%
%ADD21R,3.300000X2.850000*%
%ADD22C,2.125000*%
%ADD23C,1.855000*%
%ADD24R,2.300000X3.250000*%
G04 APERTURE END LIST*
D10*
X111354619Y-76001190D02*
X111354619Y-75501190D01*
X111354619Y-75739285D02*
X111640333Y-75739285D01*
X111640333Y-76001190D02*
X111640333Y-75501190D01*
X111878428Y-76001190D02*
X111878428Y-75501190D01*
X112068904Y-75501190D01*
X112116523Y-75525000D01*
X112140333Y-75548809D01*
X112164142Y-75596428D01*
X112164142Y-75667857D01*
X112140333Y-75715476D01*
X112116523Y-75739285D01*
X112068904Y-75763095D01*
X111878428Y-75763095D01*
X112545095Y-75739285D02*
X112378428Y-75739285D01*
X112378428Y-76001190D02*
X112378428Y-75501190D01*
X112616523Y-75501190D01*
X113187952Y-76001190D02*
X113187952Y-75667857D01*
X113187952Y-75763095D02*
X113211761Y-75715476D01*
X113235571Y-75691666D01*
X113283190Y-75667857D01*
X113330809Y-75667857D01*
X113687952Y-75977380D02*
X113640333Y-76001190D01*
X113545095Y-76001190D01*
X113497476Y-75977380D01*
X113473666Y-75929761D01*
X113473666Y-75739285D01*
X113497476Y-75691666D01*
X113545095Y-75667857D01*
X113640333Y-75667857D01*
X113687952Y-75691666D01*
X113711761Y-75739285D01*
X113711761Y-75786904D01*
X113473666Y-75834523D01*
X113878428Y-75667857D02*
X113997476Y-76001190D01*
X114116523Y-75667857D01*
X114307000Y-75953571D02*
X114330809Y-75977380D01*
X114307000Y-76001190D01*
X114283190Y-75977380D01*
X114307000Y-75953571D01*
X114307000Y-76001190D01*
X114640333Y-75501190D02*
X114687952Y-75501190D01*
X114735571Y-75525000D01*
X114759380Y-75548809D01*
X114783190Y-75596428D01*
X114807000Y-75691666D01*
X114807000Y-75810714D01*
X114783190Y-75905952D01*
X114759380Y-75953571D01*
X114735571Y-75977380D01*
X114687952Y-76001190D01*
X114640333Y-76001190D01*
X114592714Y-75977380D01*
X114568904Y-75953571D01*
X114545095Y-75905952D01*
X114521285Y-75810714D01*
X114521285Y-75691666D01*
X114545095Y-75596428D01*
X114568904Y-75548809D01*
X114592714Y-75525000D01*
X114640333Y-75501190D01*
X115283190Y-76001190D02*
X114997476Y-76001190D01*
X115140333Y-76001190D02*
X115140333Y-75501190D01*
X115092714Y-75572619D01*
X115045095Y-75620238D01*
X114997476Y-75644047D01*
X115878428Y-75667857D02*
X115878428Y-76096428D01*
X115854619Y-76144047D01*
X115807000Y-76167857D01*
X115783190Y-76167857D01*
X115878428Y-75501190D02*
X115854619Y-75525000D01*
X115878428Y-75548809D01*
X115902238Y-75525000D01*
X115878428Y-75501190D01*
X115878428Y-75548809D01*
X116330809Y-76001190D02*
X116330809Y-75739285D01*
X116307000Y-75691666D01*
X116259380Y-75667857D01*
X116164142Y-75667857D01*
X116116523Y-75691666D01*
X116330809Y-75977380D02*
X116283190Y-76001190D01*
X116164142Y-76001190D01*
X116116523Y-75977380D01*
X116092714Y-75929761D01*
X116092714Y-75882142D01*
X116116523Y-75834523D01*
X116164142Y-75810714D01*
X116283190Y-75810714D01*
X116330809Y-75786904D01*
X116568904Y-75667857D02*
X116568904Y-76001190D01*
X116568904Y-75715476D02*
X116592714Y-75691666D01*
X116640333Y-75667857D01*
X116711761Y-75667857D01*
X116759380Y-75691666D01*
X116783190Y-75739285D01*
X116783190Y-76001190D01*
X116997476Y-75548809D02*
X117021285Y-75525000D01*
X117068904Y-75501190D01*
X117187952Y-75501190D01*
X117235571Y-75525000D01*
X117259380Y-75548809D01*
X117283190Y-75596428D01*
X117283190Y-75644047D01*
X117259380Y-75715476D01*
X116973666Y-76001190D01*
X117283190Y-76001190D01*
X117592714Y-75501190D02*
X117640333Y-75501190D01*
X117687952Y-75525000D01*
X117711761Y-75548809D01*
X117735571Y-75596428D01*
X117759380Y-75691666D01*
X117759380Y-75810714D01*
X117735571Y-75905952D01*
X117711761Y-75953571D01*
X117687952Y-75977380D01*
X117640333Y-76001190D01*
X117592714Y-76001190D01*
X117545095Y-75977380D01*
X117521285Y-75953571D01*
X117497476Y-75905952D01*
X117473666Y-75810714D01*
X117473666Y-75691666D01*
X117497476Y-75596428D01*
X117521285Y-75548809D01*
X117545095Y-75525000D01*
X117592714Y-75501190D01*
X117949857Y-75548809D02*
X117973666Y-75525000D01*
X118021285Y-75501190D01*
X118140333Y-75501190D01*
X118187952Y-75525000D01*
X118211761Y-75548809D01*
X118235571Y-75596428D01*
X118235571Y-75644047D01*
X118211761Y-75715476D01*
X117926047Y-76001190D01*
X118235571Y-76001190D01*
X118426047Y-75548809D02*
X118449857Y-75525000D01*
X118497476Y-75501190D01*
X118616523Y-75501190D01*
X118664142Y-75525000D01*
X118687952Y-75548809D01*
X118711761Y-75596428D01*
X118711761Y-75644047D01*
X118687952Y-75715476D01*
X118402238Y-76001190D01*
X118711761Y-76001190D01*
X115187952Y-76327380D02*
X114759380Y-76970238D01*
X115711761Y-76327380D02*
X115283190Y-76970238D01*
X115878428Y-76851190D02*
X115878428Y-76351190D01*
X115926047Y-76660714D02*
X116068904Y-76851190D01*
X116068904Y-76517857D02*
X115878428Y-76708333D01*
X116473666Y-76827380D02*
X116426047Y-76851190D01*
X116330809Y-76851190D01*
X116283190Y-76827380D01*
X116259380Y-76779761D01*
X116259380Y-76589285D01*
X116283190Y-76541666D01*
X116330809Y-76517857D01*
X116426047Y-76517857D01*
X116473666Y-76541666D01*
X116497476Y-76589285D01*
X116497476Y-76636904D01*
X116259380Y-76684523D01*
X116664142Y-76517857D02*
X116783190Y-76851190D01*
X116902238Y-76517857D02*
X116783190Y-76851190D01*
X116735571Y-76970238D01*
X116711761Y-76994047D01*
X116664142Y-77017857D01*
X117307000Y-76517857D02*
X117307000Y-76851190D01*
X117092714Y-76517857D02*
X117092714Y-76779761D01*
X117116523Y-76827380D01*
X117164142Y-76851190D01*
X117235571Y-76851190D01*
X117283190Y-76827380D01*
X117307000Y-76803571D01*
X117759380Y-76851190D02*
X117759380Y-76351190D01*
X117759380Y-76827380D02*
X117711761Y-76851190D01*
X117616523Y-76851190D01*
X117568904Y-76827380D01*
X117545095Y-76803571D01*
X117521285Y-76755952D01*
X117521285Y-76613095D01*
X117545095Y-76565476D01*
X117568904Y-76541666D01*
X117616523Y-76517857D01*
X117711761Y-76517857D01*
X117759380Y-76541666D01*
X117997476Y-76851190D02*
X117997476Y-76517857D01*
X117997476Y-76351190D02*
X117973666Y-76375000D01*
X117997476Y-76398809D01*
X118021285Y-76375000D01*
X117997476Y-76351190D01*
X117997476Y-76398809D01*
X118164142Y-76517857D02*
X118354619Y-76517857D01*
X118235571Y-76351190D02*
X118235571Y-76779761D01*
X118259380Y-76827380D01*
X118307000Y-76851190D01*
X118354619Y-76851190D01*
X118497476Y-76827380D02*
X118545095Y-76851190D01*
X118640333Y-76851190D01*
X118687952Y-76827380D01*
X118711761Y-76779761D01*
X118711761Y-76755952D01*
X118687952Y-76708333D01*
X118640333Y-76684523D01*
X118568904Y-76684523D01*
X118521285Y-76660714D01*
X118497476Y-76613095D01*
X118497476Y-76589285D01*
X118521285Y-76541666D01*
X118568904Y-76517857D01*
X118640333Y-76517857D01*
X118687952Y-76541666D01*
D11*
X108966000Y-91694000D02*
X108966000Y-98806000D01*
X116586000Y-91694000D02*
X116586000Y-98806000D01*
D10*
X114554000Y-91192000D02*
X113538000Y-91192000D01*
X112014000Y-91192000D02*
X110998000Y-91192000D01*
X112014000Y-99320000D02*
X110998000Y-99320000D01*
X114554000Y-99320000D02*
X113538000Y-99320000D01*
X114554000Y-98812000D02*
X113538000Y-98812000D01*
X112014000Y-98812000D02*
X110998000Y-98812000D01*
X114554000Y-91700000D02*
X113538000Y-91700000D01*
X112014000Y-91700000D02*
X110998000Y-91700000D01*
X117856000Y-99350000D02*
X116586000Y-99350000D01*
X116586000Y-91150000D02*
X117856000Y-91150000D01*
X107696000Y-91150000D02*
X108966000Y-91150000D01*
X117856000Y-91150000D02*
X117856000Y-99350000D01*
X108966000Y-99350000D02*
X107696000Y-99350000D01*
X107696000Y-99350000D02*
X107696000Y-91150000D01*
D12*
X108078000Y-100926000D02*
X108078000Y-100926000D01*
X108178000Y-100926000D02*
X108178000Y-100926000D01*
X108078000Y-100926000D02*
X108078000Y-100926000D01*
X108178000Y-100926000D02*
G75*
G02*
X108078000Y-100926000I-50000J0D01*
G01*
X108078000Y-100926000D02*
G75*
G02*
X108178000Y-100926000I50000J0D01*
G01*
X108178000Y-100926000D02*
G75*
G02*
X108078000Y-100926000I-50000J0D01*
G01*
D11*
X123190000Y-75900000D02*
X123190000Y-101900000D01*
X123190000Y-75900000D02*
X144190000Y-75900000D01*
X144190000Y-75900000D02*
X144190000Y-101900000D01*
X123190000Y-101900000D02*
X144190000Y-101900000D01*
X174282000Y-75034000D02*
X155082000Y-75034000D01*
X174282000Y-75034000D02*
X174282000Y-88034000D01*
X155082000Y-88034000D02*
X174282000Y-88034000D01*
X155082000Y-75034000D02*
X155082000Y-88034000D01*
X174282000Y-90020000D02*
X155082000Y-90020000D01*
X174282000Y-90020000D02*
X174282000Y-103020000D01*
X155082000Y-103020000D02*
X174282000Y-103020000D01*
X155082000Y-90020000D02*
X155082000Y-103020000D01*
D10*
X145998000Y-95706000D02*
X152198000Y-95706000D01*
X145998000Y-101906000D02*
X145998000Y-95706000D01*
X152198000Y-101906000D02*
X145998000Y-101906000D01*
X152198000Y-95706000D02*
X152198000Y-101906000D01*
D12*
X153860000Y-86026000D02*
X153860000Y-76026000D01*
X145860000Y-76026000D02*
X145860000Y-86801000D01*
D10*
X104886000Y-84400000D02*
X103886000Y-84400000D01*
X104886000Y-93400000D02*
X104886000Y-84400000D01*
X103886000Y-93400000D02*
X104886000Y-93400000D01*
X96086000Y-93400000D02*
X96086000Y-84400000D01*
D12*
X109822000Y-86264000D02*
X117762000Y-86264000D01*
X117762000Y-80360000D02*
X109822000Y-80360000D01*
D11*
X107952000Y-82519733D02*
X107952000Y-82862267D01*
X106932000Y-82519733D02*
X106932000Y-82862267D01*
D13*
X104442380Y-100904523D02*
X105168095Y-100904523D01*
X104805238Y-102174523D02*
X104805238Y-100904523D01*
X106256666Y-102174523D02*
X105530952Y-102174523D01*
X105893809Y-102174523D02*
X105893809Y-100904523D01*
X105772857Y-101085952D01*
X105651904Y-101206904D01*
X105530952Y-101267380D01*
X121200333Y-98243571D02*
X121139857Y-98304047D01*
X120958428Y-98364523D01*
X120837476Y-98364523D01*
X120656047Y-98304047D01*
X120535095Y-98183095D01*
X120474619Y-98062142D01*
X120414142Y-97820238D01*
X120414142Y-97638809D01*
X120474619Y-97396904D01*
X120535095Y-97275952D01*
X120656047Y-97155000D01*
X120837476Y-97094523D01*
X120958428Y-97094523D01*
X121139857Y-97155000D01*
X121200333Y-97215476D01*
X122409857Y-98364523D02*
X121684142Y-98364523D01*
X122047000Y-98364523D02*
X122047000Y-97094523D01*
X121926047Y-97275952D01*
X121805095Y-97396904D01*
X121684142Y-97457380D01*
X166489142Y-81986380D02*
X166155809Y-81510190D01*
X165917714Y-81986380D02*
X165917714Y-80986380D01*
X166298666Y-80986380D01*
X166393904Y-81034000D01*
X166441523Y-81081619D01*
X166489142Y-81176857D01*
X166489142Y-81319714D01*
X166441523Y-81414952D01*
X166393904Y-81462571D01*
X166298666Y-81510190D01*
X165917714Y-81510190D01*
X166917714Y-81462571D02*
X167251047Y-81462571D01*
X167393904Y-81986380D02*
X166917714Y-81986380D01*
X166917714Y-80986380D01*
X167393904Y-80986380D01*
X167822476Y-81986380D02*
X167822476Y-80986380D01*
X168060571Y-80986380D01*
X168203428Y-81034000D01*
X168298666Y-81129238D01*
X168346285Y-81224476D01*
X168393904Y-81414952D01*
X168393904Y-81557809D01*
X168346285Y-81748285D01*
X168298666Y-81843523D01*
X168203428Y-81938761D01*
X168060571Y-81986380D01*
X167822476Y-81986380D01*
X165370095Y-96448571D02*
X165512952Y-96496190D01*
X165560571Y-96543809D01*
X165608190Y-96639047D01*
X165608190Y-96781904D01*
X165560571Y-96877142D01*
X165512952Y-96924761D01*
X165417714Y-96972380D01*
X165036761Y-96972380D01*
X165036761Y-95972380D01*
X165370095Y-95972380D01*
X165465333Y-96020000D01*
X165512952Y-96067619D01*
X165560571Y-96162857D01*
X165560571Y-96258095D01*
X165512952Y-96353333D01*
X165465333Y-96400952D01*
X165370095Y-96448571D01*
X165036761Y-96448571D01*
X166512952Y-96972380D02*
X166036761Y-96972380D01*
X166036761Y-95972380D01*
X166798666Y-96686666D02*
X167274857Y-96686666D01*
X166703428Y-96972380D02*
X167036761Y-95972380D01*
X167370095Y-96972380D01*
X168274857Y-96877142D02*
X168227238Y-96924761D01*
X168084380Y-96972380D01*
X167989142Y-96972380D01*
X167846285Y-96924761D01*
X167751047Y-96829523D01*
X167703428Y-96734285D01*
X167655809Y-96543809D01*
X167655809Y-96400952D01*
X167703428Y-96210476D01*
X167751047Y-96115238D01*
X167846285Y-96020000D01*
X167989142Y-95972380D01*
X168084380Y-95972380D01*
X168227238Y-96020000D01*
X168274857Y-96067619D01*
X168703428Y-96972380D02*
X168703428Y-95972380D01*
X169274857Y-96972380D02*
X168846285Y-96400952D01*
X169274857Y-95972380D02*
X168703428Y-96543809D01*
X152288952Y-93734000D02*
X152193714Y-93686380D01*
X152050857Y-93686380D01*
X151908000Y-93734000D01*
X151812761Y-93829238D01*
X151765142Y-93924476D01*
X151717523Y-94114952D01*
X151717523Y-94257809D01*
X151765142Y-94448285D01*
X151812761Y-94543523D01*
X151908000Y-94638761D01*
X152050857Y-94686380D01*
X152146095Y-94686380D01*
X152288952Y-94638761D01*
X152336571Y-94591142D01*
X152336571Y-94257809D01*
X152146095Y-94257809D01*
X152765142Y-94686380D02*
X152765142Y-93686380D01*
X153003238Y-93686380D01*
X153146095Y-93734000D01*
X153241333Y-93829238D01*
X153288952Y-93924476D01*
X153336571Y-94114952D01*
X153336571Y-94257809D01*
X153288952Y-94448285D01*
X153241333Y-94543523D01*
X153146095Y-94638761D01*
X153003238Y-94686380D01*
X152765142Y-94686380D01*
X153622285Y-93686380D02*
X154193714Y-93686380D01*
X153908000Y-94686380D02*
X153908000Y-93686380D01*
X151622285Y-88336380D02*
X151622285Y-87336380D01*
X151955619Y-88050666D01*
X152288952Y-87336380D01*
X152288952Y-88336380D01*
X152955619Y-87336380D02*
X153146095Y-87336380D01*
X153241333Y-87384000D01*
X153336571Y-87479238D01*
X153384190Y-87669714D01*
X153384190Y-88003047D01*
X153336571Y-88193523D01*
X153241333Y-88288761D01*
X153146095Y-88336380D01*
X152955619Y-88336380D01*
X152860380Y-88288761D01*
X152765142Y-88193523D01*
X152717523Y-88003047D01*
X152717523Y-87669714D01*
X152765142Y-87479238D01*
X152860380Y-87384000D01*
X152955619Y-87336380D01*
X153669904Y-87336380D02*
X154003238Y-88336380D01*
X154336571Y-87336380D01*
X103187619Y-95432571D02*
X103330476Y-95480190D01*
X103378095Y-95527809D01*
X103425714Y-95623047D01*
X103425714Y-95765904D01*
X103378095Y-95861142D01*
X103330476Y-95908761D01*
X103235238Y-95956380D01*
X102854285Y-95956380D01*
X102854285Y-94956380D01*
X103187619Y-94956380D01*
X103282857Y-95004000D01*
X103330476Y-95051619D01*
X103378095Y-95146857D01*
X103378095Y-95242095D01*
X103330476Y-95337333D01*
X103282857Y-95384952D01*
X103187619Y-95432571D01*
X102854285Y-95432571D01*
X103854285Y-95956380D02*
X103854285Y-94956380D01*
X104425714Y-95956380D01*
X104425714Y-94956380D01*
X105473333Y-95861142D02*
X105425714Y-95908761D01*
X105282857Y-95956380D01*
X105187619Y-95956380D01*
X105044761Y-95908761D01*
X104949523Y-95813523D01*
X104901904Y-95718285D01*
X104854285Y-95527809D01*
X104854285Y-95384952D01*
X104901904Y-95194476D01*
X104949523Y-95099238D01*
X105044761Y-95004000D01*
X105187619Y-94956380D01*
X105282857Y-94956380D01*
X105425714Y-95004000D01*
X105473333Y-95051619D01*
X108978095Y-78044523D02*
X109703809Y-78044523D01*
X109340952Y-79314523D02*
X109340952Y-78044523D01*
X109945714Y-78044523D02*
X110369047Y-79314523D01*
X110792380Y-78044523D01*
X111155238Y-79254047D02*
X111336666Y-79314523D01*
X111639047Y-79314523D01*
X111760000Y-79254047D01*
X111820476Y-79193571D01*
X111880952Y-79072619D01*
X111880952Y-78951666D01*
X111820476Y-78830714D01*
X111760000Y-78770238D01*
X111639047Y-78709761D01*
X111397142Y-78649285D01*
X111276190Y-78588809D01*
X111215714Y-78528333D01*
X111155238Y-78407380D01*
X111155238Y-78286428D01*
X111215714Y-78165476D01*
X111276190Y-78105000D01*
X111397142Y-78044523D01*
X111699523Y-78044523D01*
X111880952Y-78105000D01*
X107275333Y-85955142D02*
X107227714Y-86002761D01*
X107084857Y-86050380D01*
X106989619Y-86050380D01*
X106846761Y-86002761D01*
X106751523Y-85907523D01*
X106703904Y-85812285D01*
X106656285Y-85621809D01*
X106656285Y-85478952D01*
X106703904Y-85288476D01*
X106751523Y-85193238D01*
X106846761Y-85098000D01*
X106989619Y-85050380D01*
X107084857Y-85050380D01*
X107227714Y-85098000D01*
X107275333Y-85145619D01*
X107656285Y-85145619D02*
X107703904Y-85098000D01*
X107799142Y-85050380D01*
X108037238Y-85050380D01*
X108132476Y-85098000D01*
X108180095Y-85145619D01*
X108227714Y-85240857D01*
X108227714Y-85336095D01*
X108180095Y-85478952D01*
X107608666Y-86050380D01*
X108227714Y-86050380D01*
%LPC*%
D14*
X115616000Y-90340000D03*
D15*
X112776000Y-90340000D03*
D14*
X109936000Y-90340000D03*
X109936000Y-100160000D03*
D15*
X112776000Y-100160000D03*
D14*
X115616000Y-100160000D03*
D16*
X121190000Y-77650000D03*
X121190000Y-100150000D03*
D17*
X100584000Y-99314000D03*
X100584000Y-78740000D03*
X150876000Y-91186000D03*
D18*
X167142000Y-76454000D03*
X167142000Y-86614000D03*
X156982000Y-86614000D03*
X156982000Y-76454000D03*
D19*
X160782000Y-81534000D03*
D18*
X167142000Y-91440000D03*
X167142000Y-101600000D03*
X156982000Y-101600000D03*
X156982000Y-91440000D03*
D19*
X160782000Y-96520000D03*
D20*
X149098000Y-100556000D03*
X149098000Y-97056000D03*
D21*
X149860000Y-76626000D03*
X149860000Y-85426000D03*
D22*
X97536000Y-85200000D03*
X102616000Y-85200000D03*
X102616000Y-92600000D03*
X97536000Y-92600000D03*
D23*
X100076000Y-88900000D03*
D24*
X117292000Y-83312000D03*
X110292000Y-83312000D03*
G36*
G01*
X107179500Y-82991000D02*
X107704500Y-82991000D01*
G75*
G02*
X107967000Y-83253500I0J-262500D01*
G01*
X107967000Y-83878500D01*
G75*
G02*
X107704500Y-84141000I-262500J0D01*
G01*
X107179500Y-84141000D01*
G75*
G02*
X106917000Y-83878500I0J262500D01*
G01*
X106917000Y-83253500D01*
G75*
G02*
X107179500Y-82991000I262500J0D01*
G01*
G37*
G36*
G01*
X107179500Y-81241000D02*
X107704500Y-81241000D01*
G75*
G02*
X107967000Y-81503500I0J-262500D01*
G01*
X107967000Y-82128500D01*
G75*
G02*
X107704500Y-82391000I-262500J0D01*
G01*
X107179500Y-82391000D01*
G75*
G02*
X106917000Y-82128500I0J262500D01*
G01*
X106917000Y-81503500D01*
G75*
G02*
X107179500Y-81241000I262500J0D01*
G01*
G37*
M02*
