%FSLAX45Y45*%
G04 Gerber Fmt 4.5, Leading zero omitted, Abs format (unit mm)*
G04 Created by KiCad (PCBNEW (5.1.6-0)) date 2022-02-03 18:07:15*
%MOMM*%
%LPD*%
G01*
G04 APERTURE LIST*
%TA.AperFunction,Profile*%
%ADD10C,0.050000*%
%TD*%
%ADD11C,0.200000*%
%ADD12C,0.300000*%
G04 APERTURE END LIST*
D10*
X11760200Y-9804400D02*
X11201400Y-9804400D01*
X11201400Y-9652000D02*
X11760200Y-9652000D01*
X11760200Y-9652000D02*
G75*
G02*
X11760200Y-9804400I0J-76200D01*
G01*
X11201400Y-9804400D02*
G75*
G02*
X11201400Y-9652000I0J76200D01*
G01*
X11760200Y-9296400D02*
G75*
G02*
X11760200Y-9448800I0J-76200D01*
G01*
X10795000Y-9448800D02*
G75*
G02*
X10795000Y-9296400I0J76200D01*
G01*
X11760200Y-9448800D02*
X10795000Y-9448800D01*
X10795000Y-9296400D02*
X11760200Y-9296400D01*
X9626600Y-7569200D02*
G75*
G02*
X9753600Y-7442200I127000J0D01*
G01*
X9779000Y-10363200D02*
G75*
G02*
X9626600Y-10210800I0J152400D01*
G01*
X17373600Y-7442200D02*
G75*
G02*
X17449800Y-7518400I0J-76200D01*
G01*
X17449800Y-10287000D02*
G75*
G02*
X17373600Y-10363200I-76200J0D01*
G01*
X9626600Y-7569200D02*
X9626600Y-10210800D01*
X17449800Y-7518400D02*
X17449800Y-10287000D01*
X9753600Y-7442200D02*
X17373600Y-7442200D01*
X17373600Y-10363200D02*
X9779000Y-10363200D01*
D11*
X12069000Y-7715000D02*
X12169000Y-7815000D01*
X12169000Y-7715000D02*
X12069000Y-7815000D01*
X12069000Y-9965000D02*
X12169000Y-10065000D01*
X12169000Y-9965000D02*
X12069000Y-10065000D01*
X10066100Y-8890000D02*
G75*
G03*
X10066100Y-8890000I-58500J0D01*
G01*
X15698200Y-7580400D02*
X15698200Y-7710400D01*
X15633200Y-7645400D02*
X15763200Y-7645400D01*
X15698200Y-8596400D02*
X15698200Y-8726400D01*
X15633200Y-8661400D02*
X15763200Y-8661400D01*
X16714200Y-7580400D02*
X16714200Y-7710400D01*
X16649200Y-7645400D02*
X16779200Y-7645400D01*
X16714200Y-8596400D02*
X16714200Y-8726400D01*
X16649200Y-8661400D02*
X16779200Y-8661400D01*
X15698200Y-9079000D02*
X15698200Y-9209000D01*
X15633200Y-9144000D02*
X15763200Y-9144000D01*
X15698200Y-10095000D02*
X15698200Y-10225000D01*
X15633200Y-10160000D02*
X15763200Y-10160000D01*
X16714200Y-9079000D02*
X16714200Y-9209000D01*
X16649200Y-9144000D02*
X16779200Y-9144000D01*
X16714200Y-10095000D02*
X16714200Y-10225000D01*
X16649200Y-10160000D02*
X16779200Y-10160000D01*
X9801330Y-8567730D02*
X9801330Y-8472270D01*
X9705870Y-8472270D01*
X9705870Y-8567730D01*
X9801330Y-8567730D01*
X9801330Y-9307730D02*
X9801330Y-9212270D01*
X9705870Y-9212270D01*
X9705870Y-9307730D01*
X9801330Y-9307730D01*
X10309330Y-8567730D02*
X10309330Y-8472270D01*
X10213870Y-8472270D01*
X10213870Y-8567730D01*
X10309330Y-8567730D01*
X10309330Y-9307730D02*
X10309330Y-9212270D01*
X10213870Y-9212270D01*
X10213870Y-9307730D01*
X10309330Y-9307730D01*
X10058400Y-10041400D02*
X10168400Y-9931400D01*
X10058400Y-9821400D01*
X9948400Y-9931400D01*
X10058400Y-10041400D01*
X10058400Y-7984000D02*
X10168400Y-7874000D01*
X10058400Y-7764000D01*
X9948400Y-7874000D01*
X10058400Y-7984000D01*
X15087600Y-9228600D02*
X15197600Y-9118600D01*
X15087600Y-9008600D01*
X14977600Y-9118600D01*
X15087600Y-9228600D01*
X16078200Y-8263400D02*
X16188200Y-8153400D01*
X16078200Y-8043400D01*
X15968200Y-8153400D01*
X16078200Y-8263400D01*
X16078200Y-9762000D02*
X16188200Y-9652000D01*
X16078200Y-9542000D01*
X15968200Y-9652000D01*
X16078200Y-9762000D01*
D12*
X9910528Y-10831414D02*
X9910528Y-10531414D01*
X9981957Y-10531414D01*
X10024814Y-10545700D01*
X10053386Y-10574272D01*
X10067671Y-10602843D01*
X10081957Y-10659986D01*
X10081957Y-10702843D01*
X10067671Y-10759986D01*
X10053386Y-10788557D01*
X10024814Y-10817129D01*
X9981957Y-10831414D01*
X9910528Y-10831414D01*
X10210528Y-10831414D02*
X10210528Y-10631414D01*
X10210528Y-10688557D02*
X10224814Y-10659986D01*
X10239100Y-10645700D01*
X10267671Y-10631414D01*
X10296243Y-10631414D01*
X10396243Y-10831414D02*
X10396243Y-10631414D01*
X10396243Y-10531414D02*
X10381957Y-10545700D01*
X10396243Y-10559986D01*
X10410528Y-10545700D01*
X10396243Y-10531414D01*
X10396243Y-10559986D01*
X10581957Y-10831414D02*
X10553386Y-10817129D01*
X10539100Y-10788557D01*
X10539100Y-10531414D01*
X10739100Y-10831414D02*
X10710528Y-10817129D01*
X10696243Y-10788557D01*
X10696243Y-10531414D01*
X11081957Y-10831414D02*
X11081957Y-10531414D01*
X11181957Y-10745700D01*
X11281957Y-10531414D01*
X11281957Y-10831414D01*
X11553386Y-10831414D02*
X11553386Y-10674272D01*
X11539100Y-10645700D01*
X11510528Y-10631414D01*
X11453386Y-10631414D01*
X11424814Y-10645700D01*
X11553386Y-10817129D02*
X11524814Y-10831414D01*
X11453386Y-10831414D01*
X11424814Y-10817129D01*
X11410528Y-10788557D01*
X11410528Y-10759986D01*
X11424814Y-10731414D01*
X11453386Y-10717129D01*
X11524814Y-10717129D01*
X11553386Y-10702843D01*
X11696243Y-10631414D02*
X11696243Y-10931414D01*
X11696243Y-10645700D02*
X11724814Y-10631414D01*
X11781957Y-10631414D01*
X11810528Y-10645700D01*
X11824814Y-10659986D01*
X11839100Y-10688557D01*
X11839100Y-10774272D01*
X11824814Y-10802843D01*
X11810528Y-10817129D01*
X11781957Y-10831414D01*
X11724814Y-10831414D01*
X11696243Y-10817129D01*
X11967671Y-10802843D02*
X11981957Y-10817129D01*
X11967671Y-10831414D01*
X11953386Y-10817129D01*
X11967671Y-10802843D01*
X11967671Y-10831414D01*
X11967671Y-10645700D02*
X11981957Y-10659986D01*
X11967671Y-10674272D01*
X11953386Y-10659986D01*
X11967671Y-10645700D01*
X11967671Y-10674272D01*
X9524100Y-11275700D02*
X9624100Y-11375700D01*
X9624100Y-11275700D02*
X9524100Y-11375700D01*
X10067671Y-11461414D02*
X9896243Y-11461414D01*
X9981957Y-11461414D02*
X9981957Y-11161414D01*
X9953386Y-11204271D01*
X9924814Y-11232843D01*
X9896243Y-11247129D01*
X10196243Y-11432843D02*
X10210528Y-11447129D01*
X10196243Y-11461414D01*
X10181957Y-11447129D01*
X10196243Y-11432843D01*
X10196243Y-11461414D01*
X10396243Y-11161414D02*
X10424814Y-11161414D01*
X10453386Y-11175700D01*
X10467671Y-11189986D01*
X10481957Y-11218557D01*
X10496243Y-11275700D01*
X10496243Y-11347129D01*
X10481957Y-11404271D01*
X10467671Y-11432843D01*
X10453386Y-11447129D01*
X10424814Y-11461414D01*
X10396243Y-11461414D01*
X10367671Y-11447129D01*
X10353386Y-11432843D01*
X10339100Y-11404271D01*
X10324814Y-11347129D01*
X10324814Y-11275700D01*
X10339100Y-11218557D01*
X10353386Y-11189986D01*
X10367671Y-11175700D01*
X10396243Y-11161414D01*
X10681957Y-11161414D02*
X10710528Y-11161414D01*
X10739100Y-11175700D01*
X10753386Y-11189986D01*
X10767671Y-11218557D01*
X10781957Y-11275700D01*
X10781957Y-11347129D01*
X10767671Y-11404271D01*
X10753386Y-11432843D01*
X10739100Y-11447129D01*
X10710528Y-11461414D01*
X10681957Y-11461414D01*
X10653386Y-11447129D01*
X10639100Y-11432843D01*
X10624814Y-11404271D01*
X10610528Y-11347129D01*
X10610528Y-11275700D01*
X10624814Y-11218557D01*
X10639100Y-11189986D01*
X10653386Y-11175700D01*
X10681957Y-11161414D01*
X10910528Y-11461414D02*
X10910528Y-11261414D01*
X10910528Y-11289986D02*
X10924814Y-11275700D01*
X10953386Y-11261414D01*
X10996243Y-11261414D01*
X11024814Y-11275700D01*
X11039100Y-11304271D01*
X11039100Y-11461414D01*
X11039100Y-11304271D02*
X11053386Y-11275700D01*
X11081957Y-11261414D01*
X11124814Y-11261414D01*
X11153386Y-11275700D01*
X11167671Y-11304271D01*
X11167671Y-11461414D01*
X11310528Y-11461414D02*
X11310528Y-11261414D01*
X11310528Y-11289986D02*
X11324814Y-11275700D01*
X11353386Y-11261414D01*
X11396243Y-11261414D01*
X11424814Y-11275700D01*
X11439100Y-11304271D01*
X11439100Y-11461414D01*
X11439100Y-11304271D02*
X11453386Y-11275700D01*
X11481957Y-11261414D01*
X11524814Y-11261414D01*
X11553386Y-11275700D01*
X11567671Y-11304271D01*
X11567671Y-11461414D01*
X12153386Y-11147129D02*
X11896243Y-11532843D01*
X12539100Y-11161414D02*
X12567671Y-11161414D01*
X12596243Y-11175700D01*
X12610528Y-11189986D01*
X12624814Y-11218557D01*
X12639100Y-11275700D01*
X12639100Y-11347129D01*
X12624814Y-11404271D01*
X12610528Y-11432843D01*
X12596243Y-11447129D01*
X12567671Y-11461414D01*
X12539100Y-11461414D01*
X12510528Y-11447129D01*
X12496243Y-11432843D01*
X12481957Y-11404271D01*
X12467671Y-11347129D01*
X12467671Y-11275700D01*
X12481957Y-11218557D01*
X12496243Y-11189986D01*
X12510528Y-11175700D01*
X12539100Y-11161414D01*
X12767671Y-11432843D02*
X12781957Y-11447129D01*
X12767671Y-11461414D01*
X12753386Y-11447129D01*
X12767671Y-11432843D01*
X12767671Y-11461414D01*
X12967671Y-11161414D02*
X12996243Y-11161414D01*
X13024814Y-11175700D01*
X13039100Y-11189986D01*
X13053386Y-11218557D01*
X13067671Y-11275700D01*
X13067671Y-11347129D01*
X13053386Y-11404271D01*
X13039100Y-11432843D01*
X13024814Y-11447129D01*
X12996243Y-11461414D01*
X12967671Y-11461414D01*
X12939100Y-11447129D01*
X12924814Y-11432843D01*
X12910528Y-11404271D01*
X12896243Y-11347129D01*
X12896243Y-11275700D01*
X12910528Y-11218557D01*
X12924814Y-11189986D01*
X12939100Y-11175700D01*
X12967671Y-11161414D01*
X13167671Y-11161414D02*
X13353386Y-11161414D01*
X13253386Y-11275700D01*
X13296243Y-11275700D01*
X13324814Y-11289986D01*
X13339100Y-11304271D01*
X13353386Y-11332843D01*
X13353386Y-11404271D01*
X13339100Y-11432843D01*
X13324814Y-11447129D01*
X13296243Y-11461414D01*
X13210528Y-11461414D01*
X13181957Y-11447129D01*
X13167671Y-11432843D01*
X13496243Y-11461414D02*
X13553386Y-11461414D01*
X13581957Y-11447129D01*
X13596243Y-11432843D01*
X13624814Y-11389986D01*
X13639100Y-11332843D01*
X13639100Y-11218557D01*
X13624814Y-11189986D01*
X13610528Y-11175700D01*
X13581957Y-11161414D01*
X13524814Y-11161414D01*
X13496243Y-11175700D01*
X13481957Y-11189986D01*
X13467671Y-11218557D01*
X13467671Y-11289986D01*
X13481957Y-11318557D01*
X13496243Y-11332843D01*
X13524814Y-11347129D01*
X13581957Y-11347129D01*
X13610528Y-11332843D01*
X13624814Y-11318557D01*
X13639100Y-11289986D01*
X13753386Y-11161414D02*
X13753386Y-11218557D01*
X13867671Y-11161414D02*
X13867671Y-11218557D01*
X14310528Y-11575700D02*
X14296243Y-11561414D01*
X14267671Y-11518557D01*
X14253386Y-11489986D01*
X14239100Y-11447129D01*
X14224814Y-11375700D01*
X14224814Y-11318557D01*
X14239100Y-11247129D01*
X14253386Y-11204271D01*
X14267671Y-11175700D01*
X14296243Y-11132843D01*
X14310528Y-11118557D01*
X14410528Y-11189986D02*
X14424814Y-11175700D01*
X14453386Y-11161414D01*
X14524814Y-11161414D01*
X14553386Y-11175700D01*
X14567671Y-11189986D01*
X14581957Y-11218557D01*
X14581957Y-11247129D01*
X14567671Y-11289986D01*
X14396243Y-11461414D01*
X14581957Y-11461414D01*
X14939100Y-11461414D02*
X14939100Y-11161414D01*
X15067671Y-11461414D02*
X15067671Y-11304271D01*
X15053386Y-11275700D01*
X15024814Y-11261414D01*
X14981957Y-11261414D01*
X14953386Y-11275700D01*
X14939100Y-11289986D01*
X15253386Y-11461414D02*
X15224814Y-11447129D01*
X15210528Y-11432843D01*
X15196243Y-11404271D01*
X15196243Y-11318557D01*
X15210528Y-11289986D01*
X15224814Y-11275700D01*
X15253386Y-11261414D01*
X15296243Y-11261414D01*
X15324814Y-11275700D01*
X15339100Y-11289986D01*
X15353386Y-11318557D01*
X15353386Y-11404271D01*
X15339100Y-11432843D01*
X15324814Y-11447129D01*
X15296243Y-11461414D01*
X15253386Y-11461414D01*
X15524814Y-11461414D02*
X15496243Y-11447129D01*
X15481957Y-11418557D01*
X15481957Y-11161414D01*
X15753386Y-11447129D02*
X15724814Y-11461414D01*
X15667671Y-11461414D01*
X15639100Y-11447129D01*
X15624814Y-11418557D01*
X15624814Y-11304271D01*
X15639100Y-11275700D01*
X15667671Y-11261414D01*
X15724814Y-11261414D01*
X15753386Y-11275700D01*
X15767671Y-11304271D01*
X15767671Y-11332843D01*
X15624814Y-11361414D01*
X15881957Y-11447129D02*
X15910528Y-11461414D01*
X15967671Y-11461414D01*
X15996243Y-11447129D01*
X16010528Y-11418557D01*
X16010528Y-11404271D01*
X15996243Y-11375700D01*
X15967671Y-11361414D01*
X15924814Y-11361414D01*
X15896243Y-11347129D01*
X15881957Y-11318557D01*
X15881957Y-11304271D01*
X15896243Y-11275700D01*
X15924814Y-11261414D01*
X15967671Y-11261414D01*
X15996243Y-11275700D01*
X16110528Y-11575700D02*
X16124814Y-11561414D01*
X16153386Y-11518557D01*
X16167671Y-11489986D01*
X16181957Y-11447129D01*
X16196243Y-11375700D01*
X16196243Y-11318557D01*
X16181957Y-11247129D01*
X16167671Y-11204271D01*
X16153386Y-11175700D01*
X16124814Y-11132843D01*
X16110528Y-11118557D01*
X9624100Y-11721700D02*
G75*
G03*
X9624100Y-11721700I-58500J0D01*
G01*
X10067671Y-11857414D02*
X9896243Y-11857414D01*
X9981957Y-11857414D02*
X9981957Y-11557414D01*
X9953386Y-11600271D01*
X9924814Y-11628843D01*
X9896243Y-11643129D01*
X10196243Y-11828843D02*
X10210528Y-11843129D01*
X10196243Y-11857414D01*
X10181957Y-11843129D01*
X10196243Y-11828843D01*
X10196243Y-11857414D01*
X10496243Y-11857414D02*
X10324814Y-11857414D01*
X10410528Y-11857414D02*
X10410528Y-11557414D01*
X10381957Y-11600271D01*
X10353386Y-11628843D01*
X10324814Y-11643129D01*
X10596243Y-11557414D02*
X10796243Y-11557414D01*
X10667671Y-11857414D01*
X10910528Y-11857414D02*
X10910528Y-11657414D01*
X10910528Y-11685986D02*
X10924814Y-11671700D01*
X10953386Y-11657414D01*
X10996243Y-11657414D01*
X11024814Y-11671700D01*
X11039100Y-11700271D01*
X11039100Y-11857414D01*
X11039100Y-11700271D02*
X11053386Y-11671700D01*
X11081957Y-11657414D01*
X11124814Y-11657414D01*
X11153386Y-11671700D01*
X11167671Y-11700271D01*
X11167671Y-11857414D01*
X11310528Y-11857414D02*
X11310528Y-11657414D01*
X11310528Y-11685986D02*
X11324814Y-11671700D01*
X11353386Y-11657414D01*
X11396243Y-11657414D01*
X11424814Y-11671700D01*
X11439100Y-11700271D01*
X11439100Y-11857414D01*
X11439100Y-11700271D02*
X11453386Y-11671700D01*
X11481957Y-11657414D01*
X11524814Y-11657414D01*
X11553386Y-11671700D01*
X11567671Y-11700271D01*
X11567671Y-11857414D01*
X12153386Y-11543129D02*
X11896243Y-11928843D01*
X12539100Y-11557414D02*
X12567671Y-11557414D01*
X12596243Y-11571700D01*
X12610528Y-11585986D01*
X12624814Y-11614557D01*
X12639100Y-11671700D01*
X12639100Y-11743129D01*
X12624814Y-11800271D01*
X12610528Y-11828843D01*
X12596243Y-11843129D01*
X12567671Y-11857414D01*
X12539100Y-11857414D01*
X12510528Y-11843129D01*
X12496243Y-11828843D01*
X12481957Y-11800271D01*
X12467671Y-11743129D01*
X12467671Y-11671700D01*
X12481957Y-11614557D01*
X12496243Y-11585986D01*
X12510528Y-11571700D01*
X12539100Y-11557414D01*
X12767671Y-11828843D02*
X12781957Y-11843129D01*
X12767671Y-11857414D01*
X12753386Y-11843129D01*
X12767671Y-11828843D01*
X12767671Y-11857414D01*
X12967671Y-11557414D02*
X12996243Y-11557414D01*
X13024814Y-11571700D01*
X13039100Y-11585986D01*
X13053386Y-11614557D01*
X13067671Y-11671700D01*
X13067671Y-11743129D01*
X13053386Y-11800271D01*
X13039100Y-11828843D01*
X13024814Y-11843129D01*
X12996243Y-11857414D01*
X12967671Y-11857414D01*
X12939100Y-11843129D01*
X12924814Y-11828843D01*
X12910528Y-11800271D01*
X12896243Y-11743129D01*
X12896243Y-11671700D01*
X12910528Y-11614557D01*
X12924814Y-11585986D01*
X12939100Y-11571700D01*
X12967671Y-11557414D01*
X13324814Y-11657414D02*
X13324814Y-11857414D01*
X13253386Y-11543129D02*
X13181957Y-11757414D01*
X13367671Y-11757414D01*
X13610528Y-11557414D02*
X13553386Y-11557414D01*
X13524814Y-11571700D01*
X13510528Y-11585986D01*
X13481957Y-11628843D01*
X13467671Y-11685986D01*
X13467671Y-11800271D01*
X13481957Y-11828843D01*
X13496243Y-11843129D01*
X13524814Y-11857414D01*
X13581957Y-11857414D01*
X13610528Y-11843129D01*
X13624814Y-11828843D01*
X13639100Y-11800271D01*
X13639100Y-11728843D01*
X13624814Y-11700271D01*
X13610528Y-11685986D01*
X13581957Y-11671700D01*
X13524814Y-11671700D01*
X13496243Y-11685986D01*
X13481957Y-11700271D01*
X13467671Y-11728843D01*
X13753386Y-11557414D02*
X13753386Y-11614557D01*
X13867671Y-11557414D02*
X13867671Y-11614557D01*
X14310528Y-11971700D02*
X14296243Y-11957414D01*
X14267671Y-11914557D01*
X14253386Y-11885986D01*
X14239100Y-11843129D01*
X14224814Y-11771700D01*
X14224814Y-11714557D01*
X14239100Y-11643129D01*
X14253386Y-11600271D01*
X14267671Y-11571700D01*
X14296243Y-11528843D01*
X14310528Y-11514557D01*
X14581957Y-11857414D02*
X14410528Y-11857414D01*
X14496243Y-11857414D02*
X14496243Y-11557414D01*
X14467671Y-11600271D01*
X14439100Y-11628843D01*
X14410528Y-11643129D01*
X14939100Y-11857414D02*
X14939100Y-11557414D01*
X15067671Y-11857414D02*
X15067671Y-11700271D01*
X15053386Y-11671700D01*
X15024814Y-11657414D01*
X14981957Y-11657414D01*
X14953386Y-11671700D01*
X14939100Y-11685986D01*
X15253386Y-11857414D02*
X15224814Y-11843129D01*
X15210528Y-11828843D01*
X15196243Y-11800271D01*
X15196243Y-11714557D01*
X15210528Y-11685986D01*
X15224814Y-11671700D01*
X15253386Y-11657414D01*
X15296243Y-11657414D01*
X15324814Y-11671700D01*
X15339100Y-11685986D01*
X15353386Y-11714557D01*
X15353386Y-11800271D01*
X15339100Y-11828843D01*
X15324814Y-11843129D01*
X15296243Y-11857414D01*
X15253386Y-11857414D01*
X15524814Y-11857414D02*
X15496243Y-11843129D01*
X15481957Y-11814557D01*
X15481957Y-11557414D01*
X15753386Y-11843129D02*
X15724814Y-11857414D01*
X15667671Y-11857414D01*
X15639100Y-11843129D01*
X15624814Y-11814557D01*
X15624814Y-11700271D01*
X15639100Y-11671700D01*
X15667671Y-11657414D01*
X15724814Y-11657414D01*
X15753386Y-11671700D01*
X15767671Y-11700271D01*
X15767671Y-11728843D01*
X15624814Y-11757414D01*
X15867671Y-11971700D02*
X15881957Y-11957414D01*
X15910528Y-11914557D01*
X15924814Y-11885986D01*
X15939100Y-11843129D01*
X15953386Y-11771700D01*
X15953386Y-11714557D01*
X15939100Y-11643129D01*
X15924814Y-11600271D01*
X15910528Y-11571700D01*
X15881957Y-11528843D01*
X15867671Y-11514557D01*
X9559100Y-12052700D02*
X9559100Y-12182700D01*
X9494100Y-12117700D02*
X9624100Y-12117700D01*
X10067671Y-12253414D02*
X9896243Y-12253414D01*
X9981957Y-12253414D02*
X9981957Y-11953414D01*
X9953386Y-11996271D01*
X9924814Y-12024843D01*
X9896243Y-12039129D01*
X10196243Y-12224843D02*
X10210528Y-12239129D01*
X10196243Y-12253414D01*
X10181957Y-12239129D01*
X10196243Y-12224843D01*
X10196243Y-12253414D01*
X10310528Y-11953414D02*
X10496243Y-11953414D01*
X10396243Y-12067700D01*
X10439100Y-12067700D01*
X10467671Y-12081986D01*
X10481957Y-12096271D01*
X10496243Y-12124843D01*
X10496243Y-12196271D01*
X10481957Y-12224843D01*
X10467671Y-12239129D01*
X10439100Y-12253414D01*
X10353386Y-12253414D01*
X10324814Y-12239129D01*
X10310528Y-12224843D01*
X10681957Y-11953414D02*
X10710528Y-11953414D01*
X10739100Y-11967700D01*
X10753386Y-11981986D01*
X10767671Y-12010557D01*
X10781957Y-12067700D01*
X10781957Y-12139129D01*
X10767671Y-12196271D01*
X10753386Y-12224843D01*
X10739100Y-12239129D01*
X10710528Y-12253414D01*
X10681957Y-12253414D01*
X10653386Y-12239129D01*
X10639100Y-12224843D01*
X10624814Y-12196271D01*
X10610528Y-12139129D01*
X10610528Y-12067700D01*
X10624814Y-12010557D01*
X10639100Y-11981986D01*
X10653386Y-11967700D01*
X10681957Y-11953414D01*
X10910528Y-12253414D02*
X10910528Y-12053414D01*
X10910528Y-12081986D02*
X10924814Y-12067700D01*
X10953386Y-12053414D01*
X10996243Y-12053414D01*
X11024814Y-12067700D01*
X11039100Y-12096271D01*
X11039100Y-12253414D01*
X11039100Y-12096271D02*
X11053386Y-12067700D01*
X11081957Y-12053414D01*
X11124814Y-12053414D01*
X11153386Y-12067700D01*
X11167671Y-12096271D01*
X11167671Y-12253414D01*
X11310528Y-12253414D02*
X11310528Y-12053414D01*
X11310528Y-12081986D02*
X11324814Y-12067700D01*
X11353386Y-12053414D01*
X11396243Y-12053414D01*
X11424814Y-12067700D01*
X11439100Y-12096271D01*
X11439100Y-12253414D01*
X11439100Y-12096271D02*
X11453386Y-12067700D01*
X11481957Y-12053414D01*
X11524814Y-12053414D01*
X11553386Y-12067700D01*
X11567671Y-12096271D01*
X11567671Y-12253414D01*
X12153386Y-11939129D02*
X11896243Y-12324843D01*
X12539100Y-11953414D02*
X12567671Y-11953414D01*
X12596243Y-11967700D01*
X12610528Y-11981986D01*
X12624814Y-12010557D01*
X12639100Y-12067700D01*
X12639100Y-12139129D01*
X12624814Y-12196271D01*
X12610528Y-12224843D01*
X12596243Y-12239129D01*
X12567671Y-12253414D01*
X12539100Y-12253414D01*
X12510528Y-12239129D01*
X12496243Y-12224843D01*
X12481957Y-12196271D01*
X12467671Y-12139129D01*
X12467671Y-12067700D01*
X12481957Y-12010557D01*
X12496243Y-11981986D01*
X12510528Y-11967700D01*
X12539100Y-11953414D01*
X12767671Y-12224843D02*
X12781957Y-12239129D01*
X12767671Y-12253414D01*
X12753386Y-12239129D01*
X12767671Y-12224843D01*
X12767671Y-12253414D01*
X12967671Y-11953414D02*
X12996243Y-11953414D01*
X13024814Y-11967700D01*
X13039100Y-11981986D01*
X13053386Y-12010557D01*
X13067671Y-12067700D01*
X13067671Y-12139129D01*
X13053386Y-12196271D01*
X13039100Y-12224843D01*
X13024814Y-12239129D01*
X12996243Y-12253414D01*
X12967671Y-12253414D01*
X12939100Y-12239129D01*
X12924814Y-12224843D01*
X12910528Y-12196271D01*
X12896243Y-12139129D01*
X12896243Y-12067700D01*
X12910528Y-12010557D01*
X12924814Y-11981986D01*
X12939100Y-11967700D01*
X12967671Y-11953414D01*
X13339100Y-11953414D02*
X13196243Y-11953414D01*
X13181957Y-12096271D01*
X13196243Y-12081986D01*
X13224814Y-12067700D01*
X13296243Y-12067700D01*
X13324814Y-12081986D01*
X13339100Y-12096271D01*
X13353386Y-12124843D01*
X13353386Y-12196271D01*
X13339100Y-12224843D01*
X13324814Y-12239129D01*
X13296243Y-12253414D01*
X13224814Y-12253414D01*
X13196243Y-12239129D01*
X13181957Y-12224843D01*
X13639100Y-12253414D02*
X13467671Y-12253414D01*
X13553386Y-12253414D02*
X13553386Y-11953414D01*
X13524814Y-11996271D01*
X13496243Y-12024843D01*
X13467671Y-12039129D01*
X13753386Y-11953414D02*
X13753386Y-12010557D01*
X13867671Y-11953414D02*
X13867671Y-12010557D01*
X14310528Y-12367700D02*
X14296243Y-12353414D01*
X14267671Y-12310557D01*
X14253386Y-12281986D01*
X14239100Y-12239129D01*
X14224814Y-12167700D01*
X14224814Y-12110557D01*
X14239100Y-12039129D01*
X14253386Y-11996271D01*
X14267671Y-11967700D01*
X14296243Y-11924843D01*
X14310528Y-11910557D01*
X14467671Y-12081986D02*
X14439100Y-12067700D01*
X14424814Y-12053414D01*
X14410528Y-12024843D01*
X14410528Y-12010557D01*
X14424814Y-11981986D01*
X14439100Y-11967700D01*
X14467671Y-11953414D01*
X14524814Y-11953414D01*
X14553386Y-11967700D01*
X14567671Y-11981986D01*
X14581957Y-12010557D01*
X14581957Y-12024843D01*
X14567671Y-12053414D01*
X14553386Y-12067700D01*
X14524814Y-12081986D01*
X14467671Y-12081986D01*
X14439100Y-12096271D01*
X14424814Y-12110557D01*
X14410528Y-12139129D01*
X14410528Y-12196271D01*
X14424814Y-12224843D01*
X14439100Y-12239129D01*
X14467671Y-12253414D01*
X14524814Y-12253414D01*
X14553386Y-12239129D01*
X14567671Y-12224843D01*
X14581957Y-12196271D01*
X14581957Y-12139129D01*
X14567671Y-12110557D01*
X14553386Y-12096271D01*
X14524814Y-12081986D01*
X14939100Y-12253414D02*
X14939100Y-11953414D01*
X15067671Y-12253414D02*
X15067671Y-12096271D01*
X15053386Y-12067700D01*
X15024814Y-12053414D01*
X14981957Y-12053414D01*
X14953386Y-12067700D01*
X14939100Y-12081986D01*
X15253386Y-12253414D02*
X15224814Y-12239129D01*
X15210528Y-12224843D01*
X15196243Y-12196271D01*
X15196243Y-12110557D01*
X15210528Y-12081986D01*
X15224814Y-12067700D01*
X15253386Y-12053414D01*
X15296243Y-12053414D01*
X15324814Y-12067700D01*
X15339100Y-12081986D01*
X15353386Y-12110557D01*
X15353386Y-12196271D01*
X15339100Y-12224843D01*
X15324814Y-12239129D01*
X15296243Y-12253414D01*
X15253386Y-12253414D01*
X15524814Y-12253414D02*
X15496243Y-12239129D01*
X15481957Y-12210557D01*
X15481957Y-11953414D01*
X15753386Y-12239129D02*
X15724814Y-12253414D01*
X15667671Y-12253414D01*
X15639100Y-12239129D01*
X15624814Y-12210557D01*
X15624814Y-12096271D01*
X15639100Y-12067700D01*
X15667671Y-12053414D01*
X15724814Y-12053414D01*
X15753386Y-12067700D01*
X15767671Y-12096271D01*
X15767671Y-12124843D01*
X15624814Y-12153414D01*
X15881957Y-12239129D02*
X15910528Y-12253414D01*
X15967671Y-12253414D01*
X15996243Y-12239129D01*
X16010528Y-12210557D01*
X16010528Y-12196271D01*
X15996243Y-12167700D01*
X15967671Y-12153414D01*
X15924814Y-12153414D01*
X15896243Y-12139129D01*
X15881957Y-12110557D01*
X15881957Y-12096271D01*
X15896243Y-12067700D01*
X15924814Y-12053414D01*
X15967671Y-12053414D01*
X15996243Y-12067700D01*
X16110528Y-12367700D02*
X16124814Y-12353414D01*
X16153386Y-12310557D01*
X16167671Y-12281986D01*
X16181957Y-12239129D01*
X16196243Y-12167700D01*
X16196243Y-12110557D01*
X16181957Y-12039129D01*
X16167671Y-11996271D01*
X16153386Y-11967700D01*
X16124814Y-11924843D01*
X16110528Y-11910557D01*
X9604330Y-12561430D02*
X9604330Y-12465970D01*
X9508870Y-12465970D01*
X9508870Y-12561430D01*
X9604330Y-12561430D01*
X10067671Y-12649414D02*
X9896243Y-12649414D01*
X9981957Y-12649414D02*
X9981957Y-12349414D01*
X9953386Y-12392271D01*
X9924814Y-12420843D01*
X9896243Y-12435129D01*
X10196243Y-12620843D02*
X10210528Y-12635129D01*
X10196243Y-12649414D01*
X10181957Y-12635129D01*
X10196243Y-12620843D01*
X10196243Y-12649414D01*
X10310528Y-12349414D02*
X10496243Y-12349414D01*
X10396243Y-12463700D01*
X10439100Y-12463700D01*
X10467671Y-12477986D01*
X10481957Y-12492271D01*
X10496243Y-12520843D01*
X10496243Y-12592271D01*
X10481957Y-12620843D01*
X10467671Y-12635129D01*
X10439100Y-12649414D01*
X10353386Y-12649414D01*
X10324814Y-12635129D01*
X10310528Y-12620843D01*
X10767671Y-12349414D02*
X10624814Y-12349414D01*
X10610528Y-12492271D01*
X10624814Y-12477986D01*
X10653386Y-12463700D01*
X10724814Y-12463700D01*
X10753386Y-12477986D01*
X10767671Y-12492271D01*
X10781957Y-12520843D01*
X10781957Y-12592271D01*
X10767671Y-12620843D01*
X10753386Y-12635129D01*
X10724814Y-12649414D01*
X10653386Y-12649414D01*
X10624814Y-12635129D01*
X10610528Y-12620843D01*
X10910528Y-12649414D02*
X10910528Y-12449414D01*
X10910528Y-12477986D02*
X10924814Y-12463700D01*
X10953386Y-12449414D01*
X10996243Y-12449414D01*
X11024814Y-12463700D01*
X11039100Y-12492271D01*
X11039100Y-12649414D01*
X11039100Y-12492271D02*
X11053386Y-12463700D01*
X11081957Y-12449414D01*
X11124814Y-12449414D01*
X11153386Y-12463700D01*
X11167671Y-12492271D01*
X11167671Y-12649414D01*
X11310528Y-12649414D02*
X11310528Y-12449414D01*
X11310528Y-12477986D02*
X11324814Y-12463700D01*
X11353386Y-12449414D01*
X11396243Y-12449414D01*
X11424814Y-12463700D01*
X11439100Y-12492271D01*
X11439100Y-12649414D01*
X11439100Y-12492271D02*
X11453386Y-12463700D01*
X11481957Y-12449414D01*
X11524814Y-12449414D01*
X11553386Y-12463700D01*
X11567671Y-12492271D01*
X11567671Y-12649414D01*
X12153386Y-12335129D02*
X11896243Y-12720843D01*
X12539100Y-12349414D02*
X12567671Y-12349414D01*
X12596243Y-12363700D01*
X12610528Y-12377986D01*
X12624814Y-12406557D01*
X12639100Y-12463700D01*
X12639100Y-12535129D01*
X12624814Y-12592271D01*
X12610528Y-12620843D01*
X12596243Y-12635129D01*
X12567671Y-12649414D01*
X12539100Y-12649414D01*
X12510528Y-12635129D01*
X12496243Y-12620843D01*
X12481957Y-12592271D01*
X12467671Y-12535129D01*
X12467671Y-12463700D01*
X12481957Y-12406557D01*
X12496243Y-12377986D01*
X12510528Y-12363700D01*
X12539100Y-12349414D01*
X12767671Y-12620843D02*
X12781957Y-12635129D01*
X12767671Y-12649414D01*
X12753386Y-12635129D01*
X12767671Y-12620843D01*
X12767671Y-12649414D01*
X12967671Y-12349414D02*
X12996243Y-12349414D01*
X13024814Y-12363700D01*
X13039100Y-12377986D01*
X13053386Y-12406557D01*
X13067671Y-12463700D01*
X13067671Y-12535129D01*
X13053386Y-12592271D01*
X13039100Y-12620843D01*
X13024814Y-12635129D01*
X12996243Y-12649414D01*
X12967671Y-12649414D01*
X12939100Y-12635129D01*
X12924814Y-12620843D01*
X12910528Y-12592271D01*
X12896243Y-12535129D01*
X12896243Y-12463700D01*
X12910528Y-12406557D01*
X12924814Y-12377986D01*
X12939100Y-12363700D01*
X12967671Y-12349414D01*
X13339100Y-12349414D02*
X13196243Y-12349414D01*
X13181957Y-12492271D01*
X13196243Y-12477986D01*
X13224814Y-12463700D01*
X13296243Y-12463700D01*
X13324814Y-12477986D01*
X13339100Y-12492271D01*
X13353386Y-12520843D01*
X13353386Y-12592271D01*
X13339100Y-12620843D01*
X13324814Y-12635129D01*
X13296243Y-12649414D01*
X13224814Y-12649414D01*
X13196243Y-12635129D01*
X13181957Y-12620843D01*
X13453386Y-12349414D02*
X13639100Y-12349414D01*
X13539100Y-12463700D01*
X13581957Y-12463700D01*
X13610528Y-12477986D01*
X13624814Y-12492271D01*
X13639100Y-12520843D01*
X13639100Y-12592271D01*
X13624814Y-12620843D01*
X13610528Y-12635129D01*
X13581957Y-12649414D01*
X13496243Y-12649414D01*
X13467671Y-12635129D01*
X13453386Y-12620843D01*
X13753386Y-12349414D02*
X13753386Y-12406557D01*
X13867671Y-12349414D02*
X13867671Y-12406557D01*
X14310528Y-12763700D02*
X14296243Y-12749414D01*
X14267671Y-12706557D01*
X14253386Y-12677986D01*
X14239100Y-12635129D01*
X14224814Y-12563700D01*
X14224814Y-12506557D01*
X14239100Y-12435129D01*
X14253386Y-12392271D01*
X14267671Y-12363700D01*
X14296243Y-12320843D01*
X14310528Y-12306557D01*
X14553386Y-12449414D02*
X14553386Y-12649414D01*
X14481957Y-12335129D02*
X14410528Y-12549414D01*
X14596243Y-12549414D01*
X14939100Y-12649414D02*
X14939100Y-12349414D01*
X15067671Y-12649414D02*
X15067671Y-12492271D01*
X15053386Y-12463700D01*
X15024814Y-12449414D01*
X14981957Y-12449414D01*
X14953386Y-12463700D01*
X14939100Y-12477986D01*
X15253386Y-12649414D02*
X15224814Y-12635129D01*
X15210528Y-12620843D01*
X15196243Y-12592271D01*
X15196243Y-12506557D01*
X15210528Y-12477986D01*
X15224814Y-12463700D01*
X15253386Y-12449414D01*
X15296243Y-12449414D01*
X15324814Y-12463700D01*
X15339100Y-12477986D01*
X15353386Y-12506557D01*
X15353386Y-12592271D01*
X15339100Y-12620843D01*
X15324814Y-12635129D01*
X15296243Y-12649414D01*
X15253386Y-12649414D01*
X15524814Y-12649414D02*
X15496243Y-12635129D01*
X15481957Y-12606557D01*
X15481957Y-12349414D01*
X15753386Y-12635129D02*
X15724814Y-12649414D01*
X15667671Y-12649414D01*
X15639100Y-12635129D01*
X15624814Y-12606557D01*
X15624814Y-12492271D01*
X15639100Y-12463700D01*
X15667671Y-12449414D01*
X15724814Y-12449414D01*
X15753386Y-12463700D01*
X15767671Y-12492271D01*
X15767671Y-12520843D01*
X15624814Y-12549414D01*
X15881957Y-12635129D02*
X15910528Y-12649414D01*
X15967671Y-12649414D01*
X15996243Y-12635129D01*
X16010528Y-12606557D01*
X16010528Y-12592271D01*
X15996243Y-12563700D01*
X15967671Y-12549414D01*
X15924814Y-12549414D01*
X15896243Y-12535129D01*
X15881957Y-12506557D01*
X15881957Y-12492271D01*
X15896243Y-12463700D01*
X15924814Y-12449414D01*
X15967671Y-12449414D01*
X15996243Y-12463700D01*
X16110528Y-12763700D02*
X16124814Y-12749414D01*
X16153386Y-12706557D01*
X16167671Y-12677986D01*
X16181957Y-12635129D01*
X16196243Y-12563700D01*
X16196243Y-12506557D01*
X16181957Y-12435129D01*
X16167671Y-12392271D01*
X16153386Y-12363700D01*
X16124814Y-12320843D01*
X16110528Y-12306557D01*
X9514100Y-13019700D02*
X9624100Y-12909700D01*
X9514100Y-12799700D01*
X9404100Y-12909700D01*
X9514100Y-13019700D01*
X9896243Y-12773986D02*
X9910528Y-12759700D01*
X9939100Y-12745414D01*
X10010528Y-12745414D01*
X10039100Y-12759700D01*
X10053386Y-12773986D01*
X10067671Y-12802557D01*
X10067671Y-12831129D01*
X10053386Y-12873986D01*
X9881957Y-13045414D01*
X10067671Y-13045414D01*
X10196243Y-13016843D02*
X10210528Y-13031129D01*
X10196243Y-13045414D01*
X10181957Y-13031129D01*
X10196243Y-13016843D01*
X10196243Y-13045414D01*
X10324814Y-12773986D02*
X10339100Y-12759700D01*
X10367671Y-12745414D01*
X10439100Y-12745414D01*
X10467671Y-12759700D01*
X10481957Y-12773986D01*
X10496243Y-12802557D01*
X10496243Y-12831129D01*
X10481957Y-12873986D01*
X10310528Y-13045414D01*
X10496243Y-13045414D01*
X10681957Y-12745414D02*
X10710528Y-12745414D01*
X10739100Y-12759700D01*
X10753386Y-12773986D01*
X10767671Y-12802557D01*
X10781957Y-12859700D01*
X10781957Y-12931129D01*
X10767671Y-12988271D01*
X10753386Y-13016843D01*
X10739100Y-13031129D01*
X10710528Y-13045414D01*
X10681957Y-13045414D01*
X10653386Y-13031129D01*
X10639100Y-13016843D01*
X10624814Y-12988271D01*
X10610528Y-12931129D01*
X10610528Y-12859700D01*
X10624814Y-12802557D01*
X10639100Y-12773986D01*
X10653386Y-12759700D01*
X10681957Y-12745414D01*
X10910528Y-13045414D02*
X10910528Y-12845414D01*
X10910528Y-12873986D02*
X10924814Y-12859700D01*
X10953386Y-12845414D01*
X10996243Y-12845414D01*
X11024814Y-12859700D01*
X11039100Y-12888271D01*
X11039100Y-13045414D01*
X11039100Y-12888271D02*
X11053386Y-12859700D01*
X11081957Y-12845414D01*
X11124814Y-12845414D01*
X11153386Y-12859700D01*
X11167671Y-12888271D01*
X11167671Y-13045414D01*
X11310528Y-13045414D02*
X11310528Y-12845414D01*
X11310528Y-12873986D02*
X11324814Y-12859700D01*
X11353386Y-12845414D01*
X11396243Y-12845414D01*
X11424814Y-12859700D01*
X11439100Y-12888271D01*
X11439100Y-13045414D01*
X11439100Y-12888271D02*
X11453386Y-12859700D01*
X11481957Y-12845414D01*
X11524814Y-12845414D01*
X11553386Y-12859700D01*
X11567671Y-12888271D01*
X11567671Y-13045414D01*
X12153386Y-12731129D02*
X11896243Y-13116843D01*
X12539100Y-12745414D02*
X12567671Y-12745414D01*
X12596243Y-12759700D01*
X12610528Y-12773986D01*
X12624814Y-12802557D01*
X12639100Y-12859700D01*
X12639100Y-12931129D01*
X12624814Y-12988271D01*
X12610528Y-13016843D01*
X12596243Y-13031129D01*
X12567671Y-13045414D01*
X12539100Y-13045414D01*
X12510528Y-13031129D01*
X12496243Y-13016843D01*
X12481957Y-12988271D01*
X12467671Y-12931129D01*
X12467671Y-12859700D01*
X12481957Y-12802557D01*
X12496243Y-12773986D01*
X12510528Y-12759700D01*
X12539100Y-12745414D01*
X12767671Y-13016843D02*
X12781957Y-13031129D01*
X12767671Y-13045414D01*
X12753386Y-13031129D01*
X12767671Y-13016843D01*
X12767671Y-13045414D01*
X12967671Y-12745414D02*
X12996243Y-12745414D01*
X13024814Y-12759700D01*
X13039100Y-12773986D01*
X13053386Y-12802557D01*
X13067671Y-12859700D01*
X13067671Y-12931129D01*
X13053386Y-12988271D01*
X13039100Y-13016843D01*
X13024814Y-13031129D01*
X12996243Y-13045414D01*
X12967671Y-13045414D01*
X12939100Y-13031129D01*
X12924814Y-13016843D01*
X12910528Y-12988271D01*
X12896243Y-12931129D01*
X12896243Y-12859700D01*
X12910528Y-12802557D01*
X12924814Y-12773986D01*
X12939100Y-12759700D01*
X12967671Y-12745414D01*
X13239100Y-12873986D02*
X13210528Y-12859700D01*
X13196243Y-12845414D01*
X13181957Y-12816843D01*
X13181957Y-12802557D01*
X13196243Y-12773986D01*
X13210528Y-12759700D01*
X13239100Y-12745414D01*
X13296243Y-12745414D01*
X13324814Y-12759700D01*
X13339100Y-12773986D01*
X13353386Y-12802557D01*
X13353386Y-12816843D01*
X13339100Y-12845414D01*
X13324814Y-12859700D01*
X13296243Y-12873986D01*
X13239100Y-12873986D01*
X13210528Y-12888271D01*
X13196243Y-12902557D01*
X13181957Y-12931129D01*
X13181957Y-12988271D01*
X13196243Y-13016843D01*
X13210528Y-13031129D01*
X13239100Y-13045414D01*
X13296243Y-13045414D01*
X13324814Y-13031129D01*
X13339100Y-13016843D01*
X13353386Y-12988271D01*
X13353386Y-12931129D01*
X13339100Y-12902557D01*
X13324814Y-12888271D01*
X13296243Y-12873986D01*
X13453386Y-12745414D02*
X13653386Y-12745414D01*
X13524814Y-13045414D01*
X13753386Y-12745414D02*
X13753386Y-12802557D01*
X13867671Y-12745414D02*
X13867671Y-12802557D01*
X14310528Y-13159700D02*
X14296243Y-13145414D01*
X14267671Y-13102557D01*
X14253386Y-13073986D01*
X14239100Y-13031129D01*
X14224814Y-12959700D01*
X14224814Y-12902557D01*
X14239100Y-12831129D01*
X14253386Y-12788271D01*
X14267671Y-12759700D01*
X14296243Y-12716843D01*
X14310528Y-12702557D01*
X14567671Y-12745414D02*
X14424814Y-12745414D01*
X14410528Y-12888271D01*
X14424814Y-12873986D01*
X14453386Y-12859700D01*
X14524814Y-12859700D01*
X14553386Y-12873986D01*
X14567671Y-12888271D01*
X14581957Y-12916843D01*
X14581957Y-12988271D01*
X14567671Y-13016843D01*
X14553386Y-13031129D01*
X14524814Y-13045414D01*
X14453386Y-13045414D01*
X14424814Y-13031129D01*
X14410528Y-13016843D01*
X14939100Y-13045414D02*
X14939100Y-12745414D01*
X15067671Y-13045414D02*
X15067671Y-12888271D01*
X15053386Y-12859700D01*
X15024814Y-12845414D01*
X14981957Y-12845414D01*
X14953386Y-12859700D01*
X14939100Y-12873986D01*
X15253386Y-13045414D02*
X15224814Y-13031129D01*
X15210528Y-13016843D01*
X15196243Y-12988271D01*
X15196243Y-12902557D01*
X15210528Y-12873986D01*
X15224814Y-12859700D01*
X15253386Y-12845414D01*
X15296243Y-12845414D01*
X15324814Y-12859700D01*
X15339100Y-12873986D01*
X15353386Y-12902557D01*
X15353386Y-12988271D01*
X15339100Y-13016843D01*
X15324814Y-13031129D01*
X15296243Y-13045414D01*
X15253386Y-13045414D01*
X15524814Y-13045414D02*
X15496243Y-13031129D01*
X15481957Y-13002557D01*
X15481957Y-12745414D01*
X15753386Y-13031129D02*
X15724814Y-13045414D01*
X15667671Y-13045414D01*
X15639100Y-13031129D01*
X15624814Y-13002557D01*
X15624814Y-12888271D01*
X15639100Y-12859700D01*
X15667671Y-12845414D01*
X15724814Y-12845414D01*
X15753386Y-12859700D01*
X15767671Y-12888271D01*
X15767671Y-12916843D01*
X15624814Y-12945414D01*
X15881957Y-13031129D02*
X15910528Y-13045414D01*
X15967671Y-13045414D01*
X15996243Y-13031129D01*
X16010528Y-13002557D01*
X16010528Y-12988271D01*
X15996243Y-12959700D01*
X15967671Y-12945414D01*
X15924814Y-12945414D01*
X15896243Y-12931129D01*
X15881957Y-12902557D01*
X15881957Y-12888271D01*
X15896243Y-12859700D01*
X15924814Y-12845414D01*
X15967671Y-12845414D01*
X15996243Y-12859700D01*
X16110528Y-13159700D02*
X16124814Y-13145414D01*
X16153386Y-13102557D01*
X16167671Y-13073986D01*
X16181957Y-13031129D01*
X16196243Y-12959700D01*
X16196243Y-12902557D01*
X16181957Y-12831129D01*
X16167671Y-12788271D01*
X16153386Y-12759700D01*
X16124814Y-12716843D01*
X16110528Y-12702557D01*
M02*
