G04 #@! TF.GenerationSoftware,KiCad,Pcbnew,(5.1.6-0)*
G04 #@! TF.CreationDate,2022-02-03T18:07:08-05:00*
G04 #@! TF.ProjectId,HPF_test_01,4850465f-7465-4737-945f-30312e6b6963,rev?*
G04 #@! TF.SameCoordinates,Original*
G04 #@! TF.FileFunction,Other,Comment*
%FSLAX46Y46*%
G04 Gerber Fmt 4.6, Leading zero omitted, Abs format (unit mm)*
G04 Created by KiCad (PCBNEW (5.1.6-0)) date 2022-02-03 18:07:08*
%MOMM*%
%LPD*%
G01*
G04 APERTURE LIST*
%ADD10C,0.125000*%
%ADD11C,0.150000*%
G04 APERTURE END LIST*
D10*
X111403238Y-97174857D02*
X111403238Y-97508190D01*
X111403238Y-97222476D02*
X111427047Y-97198666D01*
X111474666Y-97174857D01*
X111546095Y-97174857D01*
X111593714Y-97198666D01*
X111617523Y-97246285D01*
X111617523Y-97508190D01*
X111927047Y-97508190D02*
X111879428Y-97484380D01*
X111855619Y-97460571D01*
X111831809Y-97412952D01*
X111831809Y-97270095D01*
X111855619Y-97222476D01*
X111879428Y-97198666D01*
X111927047Y-97174857D01*
X111998476Y-97174857D01*
X112046095Y-97198666D01*
X112069904Y-97222476D01*
X112093714Y-97270095D01*
X112093714Y-97412952D01*
X112069904Y-97460571D01*
X112046095Y-97484380D01*
X111998476Y-97508190D01*
X111927047Y-97508190D01*
X112308000Y-97174857D02*
X112308000Y-97508190D01*
X112308000Y-97222476D02*
X112331809Y-97198666D01*
X112379428Y-97174857D01*
X112450857Y-97174857D01*
X112498476Y-97198666D01*
X112522285Y-97246285D01*
X112522285Y-97508190D01*
X112760380Y-97317714D02*
X113141333Y-97317714D01*
X113379428Y-97174857D02*
X113379428Y-97674857D01*
X113379428Y-97198666D02*
X113427047Y-97174857D01*
X113522285Y-97174857D01*
X113569904Y-97198666D01*
X113593714Y-97222476D01*
X113617523Y-97270095D01*
X113617523Y-97412952D01*
X113593714Y-97460571D01*
X113569904Y-97484380D01*
X113522285Y-97508190D01*
X113427047Y-97508190D01*
X113379428Y-97484380D01*
X113903238Y-97508190D02*
X113855619Y-97484380D01*
X113831809Y-97436761D01*
X113831809Y-97008190D01*
X114308000Y-97508190D02*
X114308000Y-97246285D01*
X114284190Y-97198666D01*
X114236571Y-97174857D01*
X114141333Y-97174857D01*
X114093714Y-97198666D01*
X114308000Y-97484380D02*
X114260380Y-97508190D01*
X114141333Y-97508190D01*
X114093714Y-97484380D01*
X114069904Y-97436761D01*
X114069904Y-97389142D01*
X114093714Y-97341523D01*
X114141333Y-97317714D01*
X114260380Y-97317714D01*
X114308000Y-97293904D01*
X114474666Y-97174857D02*
X114665142Y-97174857D01*
X114546095Y-97008190D02*
X114546095Y-97436761D01*
X114569904Y-97484380D01*
X114617523Y-97508190D01*
X114665142Y-97508190D01*
X115022285Y-97484380D02*
X114974666Y-97508190D01*
X114879428Y-97508190D01*
X114831809Y-97484380D01*
X114808000Y-97436761D01*
X114808000Y-97246285D01*
X114831809Y-97198666D01*
X114879428Y-97174857D01*
X114974666Y-97174857D01*
X115022285Y-97198666D01*
X115046095Y-97246285D01*
X115046095Y-97293904D01*
X114808000Y-97341523D01*
X115474666Y-97508190D02*
X115474666Y-97008190D01*
X115474666Y-97484380D02*
X115427047Y-97508190D01*
X115331809Y-97508190D01*
X115284190Y-97484380D01*
X115260380Y-97460571D01*
X115236571Y-97412952D01*
X115236571Y-97270095D01*
X115260380Y-97222476D01*
X115284190Y-97198666D01*
X115331809Y-97174857D01*
X115427047Y-97174857D01*
X115474666Y-97198666D01*
X116308000Y-97484380D02*
X116260380Y-97508190D01*
X116165142Y-97508190D01*
X116117523Y-97484380D01*
X116093714Y-97460571D01*
X116069904Y-97412952D01*
X116069904Y-97270095D01*
X116093714Y-97222476D01*
X116117523Y-97198666D01*
X116165142Y-97174857D01*
X116260380Y-97174857D01*
X116308000Y-97198666D01*
X116736571Y-97174857D02*
X116736571Y-97508190D01*
X116522285Y-97174857D02*
X116522285Y-97436761D01*
X116546095Y-97484380D01*
X116593714Y-97508190D01*
X116665142Y-97508190D01*
X116712761Y-97484380D01*
X116736571Y-97460571D01*
X116903238Y-97174857D02*
X117093714Y-97174857D01*
X116974666Y-97008190D02*
X116974666Y-97436761D01*
X116998476Y-97484380D01*
X117046095Y-97508190D01*
X117093714Y-97508190D01*
X117331809Y-97508190D02*
X117284190Y-97484380D01*
X117260380Y-97460571D01*
X117236571Y-97412952D01*
X117236571Y-97270095D01*
X117260380Y-97222476D01*
X117284190Y-97198666D01*
X117331809Y-97174857D01*
X117403238Y-97174857D01*
X117450857Y-97198666D01*
X117474666Y-97222476D01*
X117498476Y-97270095D01*
X117498476Y-97412952D01*
X117474666Y-97460571D01*
X117450857Y-97484380D01*
X117403238Y-97508190D01*
X117331809Y-97508190D01*
X117927047Y-97174857D02*
X117927047Y-97508190D01*
X117712761Y-97174857D02*
X117712761Y-97436761D01*
X117736571Y-97484380D01*
X117784190Y-97508190D01*
X117855619Y-97508190D01*
X117903238Y-97484380D01*
X117927047Y-97460571D01*
X118093714Y-97174857D02*
X118284190Y-97174857D01*
X118165142Y-97008190D02*
X118165142Y-97436761D01*
X118188952Y-97484380D01*
X118236571Y-97508190D01*
X118284190Y-97508190D01*
X109371238Y-93618857D02*
X109371238Y-93952190D01*
X109371238Y-93666476D02*
X109395047Y-93642666D01*
X109442666Y-93618857D01*
X109514095Y-93618857D01*
X109561714Y-93642666D01*
X109585523Y-93690285D01*
X109585523Y-93952190D01*
X109895047Y-93952190D02*
X109847428Y-93928380D01*
X109823619Y-93904571D01*
X109799809Y-93856952D01*
X109799809Y-93714095D01*
X109823619Y-93666476D01*
X109847428Y-93642666D01*
X109895047Y-93618857D01*
X109966476Y-93618857D01*
X110014095Y-93642666D01*
X110037904Y-93666476D01*
X110061714Y-93714095D01*
X110061714Y-93856952D01*
X110037904Y-93904571D01*
X110014095Y-93928380D01*
X109966476Y-93952190D01*
X109895047Y-93952190D01*
X110276000Y-93618857D02*
X110276000Y-93952190D01*
X110276000Y-93666476D02*
X110299809Y-93642666D01*
X110347428Y-93618857D01*
X110418857Y-93618857D01*
X110466476Y-93642666D01*
X110490285Y-93690285D01*
X110490285Y-93952190D01*
X110728380Y-93761714D02*
X111109333Y-93761714D01*
X111347428Y-93618857D02*
X111347428Y-94118857D01*
X111347428Y-93642666D02*
X111395047Y-93618857D01*
X111490285Y-93618857D01*
X111537904Y-93642666D01*
X111561714Y-93666476D01*
X111585523Y-93714095D01*
X111585523Y-93856952D01*
X111561714Y-93904571D01*
X111537904Y-93928380D01*
X111490285Y-93952190D01*
X111395047Y-93952190D01*
X111347428Y-93928380D01*
X111871238Y-93952190D02*
X111823619Y-93928380D01*
X111799809Y-93880761D01*
X111799809Y-93452190D01*
X112276000Y-93952190D02*
X112276000Y-93690285D01*
X112252190Y-93642666D01*
X112204571Y-93618857D01*
X112109333Y-93618857D01*
X112061714Y-93642666D01*
X112276000Y-93928380D02*
X112228380Y-93952190D01*
X112109333Y-93952190D01*
X112061714Y-93928380D01*
X112037904Y-93880761D01*
X112037904Y-93833142D01*
X112061714Y-93785523D01*
X112109333Y-93761714D01*
X112228380Y-93761714D01*
X112276000Y-93737904D01*
X112442666Y-93618857D02*
X112633142Y-93618857D01*
X112514095Y-93452190D02*
X112514095Y-93880761D01*
X112537904Y-93928380D01*
X112585523Y-93952190D01*
X112633142Y-93952190D01*
X112990285Y-93928380D02*
X112942666Y-93952190D01*
X112847428Y-93952190D01*
X112799809Y-93928380D01*
X112776000Y-93880761D01*
X112776000Y-93690285D01*
X112799809Y-93642666D01*
X112847428Y-93618857D01*
X112942666Y-93618857D01*
X112990285Y-93642666D01*
X113014095Y-93690285D01*
X113014095Y-93737904D01*
X112776000Y-93785523D01*
X113442666Y-93952190D02*
X113442666Y-93452190D01*
X113442666Y-93928380D02*
X113395047Y-93952190D01*
X113299809Y-93952190D01*
X113252190Y-93928380D01*
X113228380Y-93904571D01*
X113204571Y-93856952D01*
X113204571Y-93714095D01*
X113228380Y-93666476D01*
X113252190Y-93642666D01*
X113299809Y-93618857D01*
X113395047Y-93618857D01*
X113442666Y-93642666D01*
X114276000Y-93928380D02*
X114228380Y-93952190D01*
X114133142Y-93952190D01*
X114085523Y-93928380D01*
X114061714Y-93904571D01*
X114037904Y-93856952D01*
X114037904Y-93714095D01*
X114061714Y-93666476D01*
X114085523Y-93642666D01*
X114133142Y-93618857D01*
X114228380Y-93618857D01*
X114276000Y-93642666D01*
X114704571Y-93618857D02*
X114704571Y-93952190D01*
X114490285Y-93618857D02*
X114490285Y-93880761D01*
X114514095Y-93928380D01*
X114561714Y-93952190D01*
X114633142Y-93952190D01*
X114680761Y-93928380D01*
X114704571Y-93904571D01*
X114871238Y-93618857D02*
X115061714Y-93618857D01*
X114942666Y-93452190D02*
X114942666Y-93880761D01*
X114966476Y-93928380D01*
X115014095Y-93952190D01*
X115061714Y-93952190D01*
X115299809Y-93952190D02*
X115252190Y-93928380D01*
X115228380Y-93904571D01*
X115204571Y-93856952D01*
X115204571Y-93714095D01*
X115228380Y-93666476D01*
X115252190Y-93642666D01*
X115299809Y-93618857D01*
X115371238Y-93618857D01*
X115418857Y-93642666D01*
X115442666Y-93666476D01*
X115466476Y-93714095D01*
X115466476Y-93856952D01*
X115442666Y-93904571D01*
X115418857Y-93928380D01*
X115371238Y-93952190D01*
X115299809Y-93952190D01*
X115895047Y-93618857D02*
X115895047Y-93952190D01*
X115680761Y-93618857D02*
X115680761Y-93880761D01*
X115704571Y-93928380D01*
X115752190Y-93952190D01*
X115823619Y-93952190D01*
X115871238Y-93928380D01*
X115895047Y-93904571D01*
X116061714Y-93618857D02*
X116252190Y-93618857D01*
X116133142Y-93452190D02*
X116133142Y-93880761D01*
X116156952Y-93928380D01*
X116204571Y-93952190D01*
X116252190Y-93952190D01*
D11*
X102784000Y-99314000D02*
G75*
G03*
X102784000Y-99314000I-2200000J0D01*
G01*
X102784000Y-78740000D02*
G75*
G03*
X102784000Y-78740000I-2200000J0D01*
G01*
X153076000Y-91186000D02*
G75*
G03*
X153076000Y-91186000I-2200000J0D01*
G01*
M02*
