G04 #@! TF.GenerationSoftware,KiCad,Pcbnew,(5.1.6-0)*
G04 #@! TF.CreationDate,2022-02-03T18:07:08-05:00*
G04 #@! TF.ProjectId,HPF_test_01,4850465f-7465-4737-945f-30312e6b6963,rev?*
G04 #@! TF.SameCoordinates,Original*
G04 #@! TF.FileFunction,Legend,Bot*
G04 #@! TF.FilePolarity,Positive*
%FSLAX46Y46*%
G04 Gerber Fmt 4.6, Leading zero omitted, Abs format (unit mm)*
G04 Created by KiCad (PCBNEW (5.1.6-0)) date 2022-02-03 18:07:08*
%MOMM*%
%LPD*%
G01*
G04 APERTURE LIST*
%ADD10C,0.150000*%
%ADD11C,1.624000*%
%ADD12C,4.500000*%
%ADD13C,2.400000*%
%ADD14C,3.300000*%
%ADD15C,2.125000*%
%ADD16C,1.855000*%
G04 APERTURE END LIST*
D10*
X139747047Y-100798380D02*
X139747047Y-101512666D01*
X139794666Y-101655523D01*
X139889904Y-101750761D01*
X140032761Y-101798380D01*
X140128000Y-101798380D01*
X138794666Y-101798380D02*
X139270857Y-101798380D01*
X139270857Y-100798380D01*
X137889904Y-101703142D02*
X137937523Y-101750761D01*
X138080380Y-101798380D01*
X138175619Y-101798380D01*
X138318476Y-101750761D01*
X138413714Y-101655523D01*
X138461333Y-101560285D01*
X138508952Y-101369809D01*
X138508952Y-101226952D01*
X138461333Y-101036476D01*
X138413714Y-100941238D01*
X138318476Y-100846000D01*
X138175619Y-100798380D01*
X138080380Y-100798380D01*
X137937523Y-100846000D01*
X137889904Y-100893619D01*
X137175619Y-100798380D02*
X137175619Y-101512666D01*
X137223238Y-101655523D01*
X137318476Y-101750761D01*
X137461333Y-101798380D01*
X137556571Y-101798380D01*
X136223238Y-101798380D02*
X136699428Y-101798380D01*
X136699428Y-100798380D01*
X135318476Y-101703142D02*
X135366095Y-101750761D01*
X135508952Y-101798380D01*
X135604190Y-101798380D01*
X135747047Y-101750761D01*
X135842285Y-101655523D01*
X135889904Y-101560285D01*
X135937523Y-101369809D01*
X135937523Y-101226952D01*
X135889904Y-101036476D01*
X135842285Y-100941238D01*
X135747047Y-100846000D01*
X135604190Y-100798380D01*
X135508952Y-100798380D01*
X135366095Y-100846000D01*
X135318476Y-100893619D01*
X134604190Y-100798380D02*
X134604190Y-101512666D01*
X134651809Y-101655523D01*
X134747047Y-101750761D01*
X134889904Y-101798380D01*
X134985142Y-101798380D01*
X133651809Y-101798380D02*
X134128000Y-101798380D01*
X134128000Y-100798380D01*
X132747047Y-101703142D02*
X132794666Y-101750761D01*
X132937523Y-101798380D01*
X133032761Y-101798380D01*
X133175619Y-101750761D01*
X133270857Y-101655523D01*
X133318476Y-101560285D01*
X133366095Y-101369809D01*
X133366095Y-101226952D01*
X133318476Y-101036476D01*
X133270857Y-100941238D01*
X133175619Y-100846000D01*
X133032761Y-100798380D01*
X132937523Y-100798380D01*
X132794666Y-100846000D01*
X132747047Y-100893619D01*
X132032761Y-100798380D02*
X132032761Y-101512666D01*
X132080380Y-101655523D01*
X132175619Y-101750761D01*
X132318476Y-101798380D01*
X132413714Y-101798380D01*
X131080380Y-101798380D02*
X131556571Y-101798380D01*
X131556571Y-100798380D01*
X130175619Y-101703142D02*
X130223238Y-101750761D01*
X130366095Y-101798380D01*
X130461333Y-101798380D01*
X130604190Y-101750761D01*
X130699428Y-101655523D01*
X130747047Y-101560285D01*
X130794666Y-101369809D01*
X130794666Y-101226952D01*
X130747047Y-101036476D01*
X130699428Y-100941238D01*
X130604190Y-100846000D01*
X130461333Y-100798380D01*
X130366095Y-100798380D01*
X130223238Y-100846000D01*
X130175619Y-100893619D01*
%LPC*%
D11*
X121190000Y-77650000D03*
X121190000Y-100150000D03*
D12*
X100584000Y-99314000D03*
X100584000Y-78740000D03*
X150876000Y-91186000D03*
D13*
X167142000Y-76454000D03*
X167142000Y-86614000D03*
X156982000Y-86614000D03*
X156982000Y-76454000D03*
D14*
X160782000Y-81534000D03*
D13*
X167142000Y-91440000D03*
X167142000Y-101600000D03*
X156982000Y-101600000D03*
X156982000Y-91440000D03*
D14*
X160782000Y-96520000D03*
D15*
X97536000Y-85200000D03*
X102616000Y-85200000D03*
X102616000Y-92600000D03*
X97536000Y-92600000D03*
D16*
X100076000Y-88900000D03*
M02*
