G04 #@! TF.GenerationSoftware,KiCad,Pcbnew,(5.1.6-0)*
G04 #@! TF.CreationDate,2022-02-03T18:07:08-05:00*
G04 #@! TF.ProjectId,HPF_test_01,4850465f-7465-4737-945f-30312e6b6963,rev?*
G04 #@! TF.SameCoordinates,Original*
G04 #@! TF.FileFunction,Soldermask,Top*
G04 #@! TF.FilePolarity,Negative*
%FSLAX46Y46*%
G04 Gerber Fmt 4.6, Leading zero omitted, Abs format (unit mm)*
G04 Created by KiCad (PCBNEW (5.1.6-0)) date 2022-02-03 18:07:08*
%MOMM*%
%LPD*%
G01*
G04 APERTURE LIST*
%ADD10R,1.720000X3.475000*%
%ADD11R,1.300000X3.475000*%
%ADD12C,1.624000*%
%ADD13C,4.500000*%
%ADD14C,2.400000*%
%ADD15C,3.300000*%
%ADD16R,5.100000X1.400000*%
%ADD17R,3.300000X2.850000*%
%ADD18C,2.125000*%
%ADD19C,1.855000*%
%ADD20R,2.300000X3.250000*%
G04 APERTURE END LIST*
D10*
X115616000Y-90340000D03*
D11*
X112776000Y-90340000D03*
D10*
X109936000Y-90340000D03*
X109936000Y-100160000D03*
D11*
X112776000Y-100160000D03*
D10*
X115616000Y-100160000D03*
D12*
X121190000Y-77650000D03*
X121190000Y-100150000D03*
D13*
X100584000Y-99314000D03*
X100584000Y-78740000D03*
X150876000Y-91186000D03*
D14*
X167142000Y-76454000D03*
X167142000Y-86614000D03*
X156982000Y-86614000D03*
X156982000Y-76454000D03*
D15*
X160782000Y-81534000D03*
D14*
X167142000Y-91440000D03*
X167142000Y-101600000D03*
X156982000Y-101600000D03*
X156982000Y-91440000D03*
D15*
X160782000Y-96520000D03*
D16*
X149098000Y-100556000D03*
X149098000Y-97056000D03*
D17*
X149860000Y-76626000D03*
X149860000Y-85426000D03*
D18*
X97536000Y-85200000D03*
X102616000Y-85200000D03*
X102616000Y-92600000D03*
X97536000Y-92600000D03*
D19*
X100076000Y-88900000D03*
D20*
X117292000Y-83312000D03*
X110292000Y-83312000D03*
G36*
G01*
X107179500Y-82991000D02*
X107704500Y-82991000D01*
G75*
G02*
X107967000Y-83253500I0J-262500D01*
G01*
X107967000Y-83878500D01*
G75*
G02*
X107704500Y-84141000I-262500J0D01*
G01*
X107179500Y-84141000D01*
G75*
G02*
X106917000Y-83878500I0J262500D01*
G01*
X106917000Y-83253500D01*
G75*
G02*
X107179500Y-82991000I262500J0D01*
G01*
G37*
G36*
G01*
X107179500Y-81241000D02*
X107704500Y-81241000D01*
G75*
G02*
X107967000Y-81503500I0J-262500D01*
G01*
X107967000Y-82128500D01*
G75*
G02*
X107704500Y-82391000I-262500J0D01*
G01*
X107179500Y-82391000D01*
G75*
G02*
X106917000Y-82128500I0J262500D01*
G01*
X106917000Y-81503500D01*
G75*
G02*
X107179500Y-81241000I262500J0D01*
G01*
G37*
M02*
