%TF.GenerationSoftware,KiCad,Pcbnew,(6.0.9-0)*%
%TF.CreationDate,2023-06-22T13:59:56-04:00*%
%TF.ProjectId,plucker_v03,706c7563-6b65-4725-9f76-30332e6b6963,rev?*%
%TF.SameCoordinates,Original*%
%TF.FileFunction,Drillmap*%
%TF.FilePolarity,Positive*%
%FSLAX45Y45*%
G04 Gerber Fmt 4.5, Leading zero omitted, Abs format (unit mm)*
G04 Created by KiCad (PCBNEW (6.0.9-0)) date 2023-06-22 13:59:56*
%MOMM*%
%LPD*%
G01*
G04 APERTURE LIST*
%ADD10C,0.050000*%
%ADD11C,0.200000*%
G04 APERTURE END LIST*
D10*
X13363481Y-11887200D02*
X15392400Y-11887200D01*
X13287281Y-9169400D02*
X13287281Y-11811000D01*
X15392400Y-9093200D02*
X13363481Y-9093200D01*
X15468600Y-11811000D02*
X15468600Y-9169400D01*
X15392400Y-11887200D02*
G75*
G03*
X15468600Y-11811000I0J76200D01*
G01*
X13287281Y-11811000D02*
G75*
G03*
X13363481Y-11887200I76200J0D01*
G01*
X13363481Y-9093200D02*
G75*
G03*
X13287281Y-9169400I0J-76200D01*
G01*
X15468600Y-9169400D02*
G75*
G03*
X15392400Y-9093200I-76200J0D01*
G01*
X10579600Y-12440200D02*
X18479600Y-12440200D01*
X10579600Y-8540200D02*
X10579600Y-12440200D01*
X10579600Y-8540200D02*
X18479600Y-8540200D01*
X18479600Y-8540200D02*
X18479600Y-12440200D01*
D11*
X10834719Y-12753176D02*
X10834719Y-12553176D01*
X10882338Y-12553176D01*
X10910910Y-12562700D01*
X10929957Y-12581748D01*
X10939481Y-12600795D01*
X10949005Y-12638890D01*
X10949005Y-12667462D01*
X10939481Y-12705557D01*
X10929957Y-12724605D01*
X10910910Y-12743652D01*
X10882338Y-12753176D01*
X10834719Y-12753176D01*
X11034719Y-12753176D02*
X11034719Y-12619843D01*
X11034719Y-12657938D02*
X11044243Y-12638890D01*
X11053767Y-12629367D01*
X11072814Y-12619843D01*
X11091862Y-12619843D01*
X11158529Y-12753176D02*
X11158529Y-12619843D01*
X11158529Y-12553176D02*
X11149005Y-12562700D01*
X11158529Y-12572224D01*
X11168052Y-12562700D01*
X11158529Y-12553176D01*
X11158529Y-12572224D01*
X11282338Y-12753176D02*
X11263290Y-12743652D01*
X11253767Y-12724605D01*
X11253767Y-12553176D01*
X11387100Y-12753176D02*
X11368052Y-12743652D01*
X11358528Y-12724605D01*
X11358528Y-12553176D01*
X11615671Y-12753176D02*
X11615671Y-12553176D01*
X11682338Y-12696033D01*
X11749005Y-12553176D01*
X11749005Y-12753176D01*
X11929957Y-12753176D02*
X11929957Y-12648414D01*
X11920433Y-12629367D01*
X11901386Y-12619843D01*
X11863290Y-12619843D01*
X11844243Y-12629367D01*
X11929957Y-12743652D02*
X11910909Y-12753176D01*
X11863290Y-12753176D01*
X11844243Y-12743652D01*
X11834719Y-12724605D01*
X11834719Y-12705557D01*
X11844243Y-12686509D01*
X11863290Y-12676986D01*
X11910909Y-12676986D01*
X11929957Y-12667462D01*
X12025195Y-12619843D02*
X12025195Y-12819843D01*
X12025195Y-12629367D02*
X12044243Y-12619843D01*
X12082338Y-12619843D01*
X12101386Y-12629367D01*
X12110909Y-12638890D01*
X12120433Y-12657938D01*
X12120433Y-12715081D01*
X12110909Y-12734128D01*
X12101386Y-12743652D01*
X12082338Y-12753176D01*
X12044243Y-12753176D01*
X12025195Y-12743652D01*
X12206148Y-12734128D02*
X12215671Y-12743652D01*
X12206148Y-12753176D01*
X12196624Y-12743652D01*
X12206148Y-12734128D01*
X12206148Y-12753176D01*
X12206148Y-12629367D02*
X12215671Y-12638890D01*
X12206148Y-12648414D01*
X12196624Y-12638890D01*
X12206148Y-12629367D01*
X12206148Y-12648414D01*
M02*
